<svg id="Layer_1" data-name="Layer 1" xmlns="http://www.w3.org/2000/svg" viewBox="0 0 229.1 268.12"><defs><style>.cls-1{fill:#ffffff;}</style></defs><path class="cls-1" d="M1.58,230.65V194.28H15.07q7.93,0,12.89,5t4.95,13.14q0,8.11-4.95,13.15t-12.89,5ZM8.8,223.6h6.27a10.84,10.84,0,0,0,3.21-.51,13.85,13.85,0,0,0,3.42-1.62A8.08,8.08,0,0,0,24.58,218a12.82,12.82,0,0,0,1.12-5.54A12.4,12.4,0,0,0,24.55,207a8.9,8.9,0,0,0-2.88-3.49,12.42,12.42,0,0,0-3.39-1.68,10.84,10.84,0,0,0-3.21-.51H8.8Zm54.05-29.32v6.6H45.45v8.28H61.67v6.6H45.45v8.29h17.4v6.6H38.23V194.28Zm9.85,24.06a10.37,10.37,0,0,0,4,3.8,12.35,12.35,0,0,0,6.61,1.91c2.08,0,3.55-.34,4.39-1A3.44,3.44,0,0,0,89,220.18a2.53,2.53,0,0,0-.56-1.56,4.52,4.52,0,0,0-1.68-1.26q-1.12-.53-2-.84c-.6-.2-1.38-.45-2.33-.73l-1.93-.58-1.54-.45c-.87-.26-1.59-.5-2.15-.7s-1.31-.51-2.27-.92a10.12,10.12,0,0,1-2.35-1.38,20.47,20.47,0,0,1-1.9-1.79,6.51,6.51,0,0,1-1.45-2.43,9.24,9.24,0,0,1-.48-3q0-5.49,4.06-8.2a17.85,17.85,0,0,1,10.15-2.71,17.32,17.32,0,0,1,9,2.38c2.67,1.58,4.37,3.4,5.12,5.45L91,205.13a8.34,8.34,0,0,0-3.5-2.91,12.37,12.37,0,0,0-5.84-1.39,6.53,6.53,0,0,0-3.75.89,2.8,2.8,0,0,0-1.29,2.41,2.52,2.52,0,0,0,.53,1.54,4.67,4.67,0,0,0,1.6,1.23,19.25,19.25,0,0,0,1.93.84c.58.2,1.33.43,2.27.7s1.56.44,1.9.55c.07,0,.5.18,1.28.42s1.39.45,1.82.62,1.07.44,1.93.81A16,16,0,0,1,92,211.93a18.44,18.44,0,0,1,1.87,1.4,9.2,9.2,0,0,1,1.65,1.76,9.63,9.63,0,0,1,1.07,2.13,7.6,7.6,0,0,1,.44,2.63,10,10,0,0,1-3.88,8.5q-3.9,3-10.61,3a18.48,18.48,0,0,1-10-2.6,13.7,13.7,0,0,1-5.65-6.24Zm34.07,0a10.41,10.41,0,0,0,4,3.8,12.32,12.32,0,0,0,6.6,1.91c2.09,0,3.55-.34,4.39-1a3.44,3.44,0,0,0,1.26-2.86,2.53,2.53,0,0,0-.56-1.56,4.36,4.36,0,0,0-1.68-1.26,21,21,0,0,0-2-.84c-.6-.2-1.37-.45-2.32-.73s-1.6-.47-1.93-.58l-1.54-.45c-.88-.26-1.6-.5-2.16-.7s-1.31-.51-2.26-.92a9.91,9.91,0,0,1-2.35-1.38,19.28,19.28,0,0,1-1.9-1.79,6.53,6.53,0,0,1-1.46-2.43,9.24,9.24,0,0,1-.47-3q0-5.49,4-8.2a17.89,17.89,0,0,1,10.16-2.71,17.28,17.28,0,0,1,9,2.38q4,2.37,5.12,5.45l-5.7,3.69a8.4,8.4,0,0,0-3.5-2.91,12.38,12.38,0,0,0-5.85-1.39,6.53,6.53,0,0,0-3.75.89,2.79,2.79,0,0,0-1.28,2.41,2.46,2.46,0,0,0,.53,1.54,4.53,4.53,0,0,0,1.59,1.23,19.25,19.25,0,0,0,1.93.84c.58.2,1.34.43,2.27.7s1.57.44,1.9.55c.08,0,.5.18,1.29.42s1.39.45,1.82.62l1.93.81a16.4,16.4,0,0,1,2.12,1.09,18.45,18.45,0,0,1,1.88,1.4,9.2,9.2,0,0,1,1.65,1.76,9.62,9.62,0,0,1,1.06,2.13,7.61,7.61,0,0,1,.45,2.63,10,10,0,0,1-3.89,8.5q-3.89,3-10.6,3a18.5,18.5,0,0,1-10-2.6,13.75,13.75,0,0,1-5.65-6.24Zm54-24.06v6.6h-17.4v8.28h16.23v6.6H143.36v8.29h17.4v6.6H136.14V194.28Zm5.88,36.37V194.28h17.45a10.79,10.79,0,0,1,7.75,3.22,11.59,11.59,0,0,1,3.33,8.75,12.14,12.14,0,0,1-2.1,7.25,11,11,0,0,1-5.39,4.11l8.22,13h-8.34l-7.83-12.42h-5.88v12.42Zm16.28-19.47a5,5,0,0,0,3.52-1.37,4.68,4.68,0,0,0,1.46-3.56,4.75,4.75,0,0,0-1.46-3.61,5,5,0,0,0-3.52-1.37h-9.07v9.91Zm16.17-16.9h29v6.6H217.27v29.77H210V200.88H199.09ZM15.33,245.93v2.84H4.49v6.61H14.72v2.87H4.49v8.65h-3v-21Zm24.07,21h-3v-21h3Zm24.23-21,10.48,15.78V245.93h3v21H74.21L63.72,251.06V266.9h-3v-21Zm33.84,21,8.58-21h2.33l8.58,21h-3.23l-1.84-4.61h-9.35l-1.84,4.61Zm13.29-7.39-3.55-8.9-3.54,8.9Zm29.14-13.58,10.48,15.78V245.93h3v21h-2.93L140,251.06V266.9h-3v-21Zm34.48,10.48a10.62,10.62,0,0,1,3-7.71,10.15,10.15,0,0,1,7.6-3,9.7,9.7,0,0,1,8.48,4.23L191,251.67a7.25,7.25,0,0,0-2.53-2.18,7.53,7.53,0,0,0-3.5-.82,7.19,7.19,0,0,0-5.44,2.18,8.46,8.46,0,0,0,0,11.11,7.22,7.22,0,0,0,5.44,2.17,7.38,7.38,0,0,0,6-3l2.45,1.84a9.7,9.7,0,0,1-8.48,4.23,10.15,10.15,0,0,1-7.6-3A10.63,10.63,0,0,1,174.38,256.41ZM213,245.93h13.81v2.77H216V255h10.1v2.77H216v6.33h10.78v2.77H213ZM125.75,119.21H96.8a1.44,1.44,0,0,0-.89,2.58L109,132.16a1.44,1.44,0,0,0,.89.31h2.27a1.4,1.4,0,0,0,.88-.3l13.57-10.36A1.45,1.45,0,0,0,125.75,119.21Zm61.34-26.35a21,21,0,0,0-2.49-2.14l-9.44,9.41a10.05,10.05,0,0,1,5.66,9.5,10.27,10.27,0,0,1-10.38,9.58H156l-13.3,13.26h18.06c-1.25,4.34-2.48,8.67-3.71,12.94-2,7.11-4.1,14.39-6.15,21.52H73.16L63,132.47H85l-7.43-13.26H53.17a10.24,10.24,0,0,1-10.29-9.06,10.06,10.06,0,0,1,10-11H156.8l12.43-10.35a15.23,15.23,0,0,0,5.26-9,24,24,0,0,0,.37-4.17A23.23,23.23,0,0,0,152.8,52.44V52.3A23.3,23.3,0,0,0,148.58,39a37.93,37.93,0,0,0-9.14-9.27c-10.82-7.51-27-5.77-30.88-10.32s-4.16-11.56.21-17.76A28.8,28.8,0,0,0,97.53,5c-1.1.73-2.22,1.45-3.25,2.28a55.79,55.79,0,0,0-6,5.52C82.27,19.24,78,27,74.46,35A37.16,37.16,0,0,0,71,49.53a24.65,24.65,0,0,0,0,2.85c-12.92,0-23.88,10.44-23.88,23.28,0,.17,0,.35,0,.52a22.76,22.76,0,0,0,2.57,10.13A23.07,23.07,0,0,0,49.29,132l14.13,48h97.3c4.52-15.56,9.18-32,13.76-48a23.06,23.06,0,0,0,12.61-39.08ZM84.61,36.42C86,32,90.43,22,97.45,16.48c-.72,4.77,0,10.37,7.59,13.56,4.06,1.71,13.8,1.57,24,5.63,1.09.44,12.06,7.73,12.16,16.63,0,0,0,.05,0,.08H82a2.51,2.51,0,0,1-.47-.79C80.5,48.48,84.06,38.23,84.61,36.42ZM70.47,63.93h81.1a11.73,11.73,0,0,1,5.35,22.18H65.12a11.74,11.74,0,0,1,5.35-22.18ZM193.68,74.06,170.62,91.67l-15,11.44-24.35,18.61L115.22,134l-3.11,2.38-1.46,1.11-1.52-1.2-2.9-2.29L90.7,121.72l-10.1-8-5.15-4.07,2.48,4.42,4.29,7.64L89.1,134,105,162.43l1.11,2,1.84-1.84L136.65,134,149,121.72l18.46-18.4,9.19-9.17L197.54,73.3l9.4-9.37Z"/></svg>