<svg width="168" height="154" viewBox="0 0 168 154" fill="none" xmlns="http://www.w3.org/2000/svg">
<path d="M132.801 0V0.731013H133.044L132.801 0ZM133.775 0V0.731013H134.019L133.775 0ZM133.288 0.243671V0.974684H133.532L133.288 0.243671ZM134.506 0.243671V0.487342H156.193L149.614 0.243671H134.506ZM156.924 0.243671V0.487342H157.655L156.924 0.243671Z" fill="#F2BE89"/>
<path d="M134.263 0.730957L134.506 0.974628L134.263 0.730957Z" fill="#F49B26"/>
<path d="M134.506 0.730957V0.974628H157.899L150.832 0.730957H134.506ZM133.775 0.974628V1.46197H134.263V0.974628H133.775Z" fill="#F2BE89"/>
<path d="M134.263 0.974609V5.84803H124.759L125.003 10.4778L139.136 10.2341V5.84803H153.025V19.2499L153.276 24.2201L157.899 24.6107V0.974609H134.263Z" fill="#6E2D14"/>
<path d="M132.638 1.62451L132.719 1.7868L132.638 1.62451ZM133.288 1.70566V1.94933H134.019L133.288 1.70566ZM134.019 1.94933L133.775 5.60439H133.532V4.87338H133.288L133.044 5.60439H124.759V5.84806H134.263L134.019 1.94933ZM7.3101 4.62971L7.55377 4.87338L7.3101 4.62971ZM6.09175 5.11705L6.33542 5.36072L6.09175 5.11705ZM6.33542 23.3924H6.57909V5.84806H35.0886L28.7531 5.60439H13.1582L6.58591 5.7523L6.33542 10.4778V23.3924Z" fill="#F2BE89"/>
<path d="M6.57913 5.84814V24.6108H11.2089C11.5666 21.2594 11.1994 17.7566 11.4306 14.3766C11.4952 13.4344 11.003 11.4825 11.5598 10.686C12.2374 9.71642 15.2743 10.2342 16.326 10.2342H30.2152V15.1076H43.8608L48.8309 14.8571L49.2215 10.4779H38.9874L35.2356 10.0873L34.845 5.84814H6.57913Z" fill="#6E2D14"/>
<path d="M34.8449 5.84814L35.0954 10.0873L38.7437 10.4779H49.2215V10.2342H35.0886L34.8449 5.84814Z" fill="#CF7A10"/>
<path d="M139.136 5.84814V10.4779H134.263V15.1076L127.44 15.076L125.01 15.4975L124.759 19.9811L120.137 20.3717L119.886 24.6108H105.753C105.753 25.739 106.22 28.2361 105.363 29.0936C104.858 29.598 103.964 29.483 103.316 29.4842C101.898 29.4871 97.6382 30.1904 96.7441 28.8911C96.0762 27.9208 96.4937 25.75 96.4937 24.6108H91.6202V29.4842H86.9905V33.8703H77.4873V29.4842L77.2437 29.2405C72.9706 29.8017 72.8576 28.5466 72.8576 24.6108H67.9842L67.5935 29.0597L63.8418 29.4842H53.6076V24.6108L44.3481 24.3671L44.1044 19.7374L35.0886 19.9811V15.3513L30.3621 14.9607L29.9715 10.4779H11.4525L11.703 14.717L14.3766 15.1076L20.9557 15.3513V19.9811H30.2152V24.3671L39.7183 24.8545L39.5441 31.1899L39.1252 33.8635L35.0886 34.114L34.7392 38.5276L30.2152 38.9874V53.1203H25.5854V57.75L21.1993 57.5064H20.9557L20.712 67.2532H16.0823L15.8386 77.2437L15.448 80.9955L11.4525 81.3861C11.4525 85.7661 10.4566 91.5689 11.6962 95.7627L15.8386 95.519L15.5949 90.8893C20.3107 90.7786 25.879 89.7306 30.4588 91.1329C30.1891 92.0455 29.7437 94.5704 30.6058 95.2695C31.5931 96.07 33.4677 95.5502 34.6012 95.5227C38.0082 95.4393 41.4272 95.519 44.8354 95.519C45.8406 95.519 48.0031 95.924 48.8309 95.2685C49.7642 94.5292 49.1625 91.8849 48.9778 90.8893L58.481 90.6456V86.0159H72.6139V81.3861C73.7355 81.3101 75.9393 81.8593 76.853 81.1356C77.7354 80.4368 77.2697 77.706 77 76.7564C81.4869 75.6881 87.0097 76.5127 91.6202 76.5127V81.3861L96.25 81.1424L96.7441 85.6155L100.392 86.0149L110.627 86.0159V90.6456H120.861L124.579 91.2387L125.003 95.519H138.892L139.358 91.2068L142.791 90.7055L152.782 90.6456L153.513 95.7627H157.899V85.2848L157.508 81.6366L153.025 81.3861V67.2532L148.396 67.0095V53.364L139.136 53.1203V37.2817L138.892 29.2405C140.021 29.4557 142.189 29.9204 143.132 29.0315C143.728 28.4696 143.522 27.2951 143.522 26.5602C143.522 24.3754 143.404 22.1609 143.522 19.9811L148.396 19.7374V15.1076H153.025V5.84814H139.136Z" fill="#F49B26"/>
<path d="M124.516 6.82275V7.79744H124.759L124.516 6.82275ZM49.059 9.90933L49.1404 10.0716L49.059 9.90933ZM49.4652 9.7468V15.1076H49.7088L49.4652 9.7468ZM50.4399 9.7468L50.6835 9.99048L50.4399 9.7468ZM115.013 10.4778L115.744 9.7468L115.013 10.4778ZM116.312 9.90933L116.394 10.0716L116.312 9.90933ZM116.718 9.7468L116.962 9.99048L116.718 9.7468ZM35.0886 9.99048V10.2341H36.0633L35.0886 9.99048ZM124.435 10.0716L124.597 10.153L124.435 10.0716Z" fill="#F2BE89"/>
<path d="M11.4525 10.2341V10.4778H29.9715V15.1075H30.2152V10.2341H11.4525ZM115.013 10.4778V10.7215L124.759 10.4778V15.1075L115.013 14.8639C115.22 15.9879 115.818 18.7536 114.931 19.6966C114.467 20.1903 113.431 19.981 112.82 19.981C111.101 19.981 107.066 20.7217 105.753 19.7373L105.509 19.981L105.997 20.2246L105.753 24.6107L96.25 24.367L96.4936 20.2246L85.0411 19.981H67.7405V20.2246L68.2278 19.981V20.2246L67.9841 24.6107H58.481V19.981H49.2215V15.3512H50.4398V15.1075H30.2152V15.3512H35.0886V19.981L44.1044 19.7373L44.3481 24.367L53.6076 24.6107V29.4841H64.0854L67.7336 29.0597L67.9841 24.6107H72.8576C72.8576 28.1703 72.9138 30.4703 77.2436 29.2405L77.4873 29.4841V33.8702H86.9905V29.4841H91.6202V24.6107H96.4936C96.4936 25.7053 96.0292 28.1759 96.7441 29.0597C97.6703 30.2044 102.174 29.4871 103.56 29.4841C104.15 29.4829 105.084 29.6218 105.503 29.0935C106.218 28.1907 105.753 25.7211 105.753 24.6107H119.886L120.277 20.3716L124.759 19.981L125.01 15.6721L127.462 15.0954L134.263 15.1075V10.4778H139.136L132.639 10.2831L121.104 10.2341L115.013 10.4778Z" fill="#CF7A10"/>
<path d="M115.256 10.4778V15.1075H124.759V10.4778H115.256Z" fill="#6E2D14"/>
<path d="M11.2089 10.7214L11.4525 10.9651L11.2089 10.7214Z" fill="#CF7A10"/>
<path d="M50.1962 10.7214V11.6961H50.4399L50.6835 10.7214H50.1962Z" fill="#F2BE89"/>
<path d="M115.013 10.7214V14.3765H115.256L115.013 10.7214Z" fill="#F49B26"/>
<path d="M139.38 10.7214L139.623 10.9651L139.38 10.7214Z" fill="#CF7A10"/>
<path d="M133.532 11.209L133.775 11.4527L133.532 11.209Z" fill="#F49B26"/>
<path d="M11.2089 11.4524L11.4525 11.6961L11.2089 11.4524Z" fill="#CF7A10"/>
<path d="M49.7089 11.6963V13.8893H49.9525L49.7089 11.6963ZM58.6436 13.7268L58.8058 13.8082L58.6436 13.7268ZM66.5222 13.6457L66.2785 14.6203H66.5222V13.6457ZM95.519 13.6457L87.7215 13.8893H72.1266V14.133H87.9652L95.7627 13.8893L95.519 13.6457ZM96.25 13.6457C95.3199 15.0804 91.4914 14.3767 89.9146 14.3767H74.3196C72.6069 14.3767 69.6282 14.9503 68.2279 13.8893H67.9842C68.9893 15.4398 73.8028 14.6203 75.538 14.6203C82.4975 14.6203 90.3834 13.594 97.2247 14.864L96.25 13.6457ZM52.8766 13.8893V14.133H56.5317L52.8766 13.8893ZM67.2532 13.8893L66.7658 15.595H67.0095L67.2532 13.8893ZM96.7374 13.8893V14.133H97.4684L96.7374 13.8893ZM105.266 13.8893V14.133H113.063L105.266 13.8893Z" fill="#F2BE89"/>
<path d="M132.801 14.1328L133.044 14.3765L132.801 14.1328Z" fill="#F49B26"/>
<path d="M49.7089 14.3767V14.6204H50.4399L49.7089 14.3767ZM50.6836 14.3767V14.6204H58.481L50.6836 14.3767ZM67.4969 14.3767L67.2532 15.5951H67.4969V14.3767ZM105.266 14.3767V14.6204L115.256 14.8641L112.576 14.3767H105.266ZM11.5337 15.0266L11.6151 15.1889L11.5337 15.0266Z" fill="#F2BE89"/>
<path d="M49.2215 14.8638L49.4652 15.1074L49.2215 14.8638Z" fill="#F49B26"/>
<path d="M49.9525 14.864V15.1077C52.7477 15.1077 56.3662 14.4924 58.9684 15.595C57.8777 13.913 51.8795 14.864 49.9525 14.864ZM59.4557 14.864V15.595H59.6994L59.4557 14.864ZM67.9842 14.864V15.1077H88.6962C90.746 15.1077 94.8338 14.3375 96.4937 15.595C96.6908 14.3993 90.9448 14.864 89.9146 14.864H67.9842ZM105.753 14.864V15.1077H115.013C112.567 14.0816 108.412 14.864 105.753 14.864ZM152.051 15.1077V15.3514L152.782 15.595H153.025L152.782 14.864L152.051 15.1077Z" fill="#F2BE89"/>
<path d="M11.2089 15.1077V23.6361H11.4525L11.2089 15.1077Z" fill="#CF7A10"/>
<path d="M15.8386 24.3671L16.0823 33.8703H20.9557L20.712 43.3734L27.5348 43.6171L29.9647 43.2265L30.2152 38.7437H35.0886V33.8703H39.4747V24.6108H30.2152V19.981H20.712V15.1076H14.1329C13.4499 15.1076 12.1896 14.8839 11.703 15.4982C11.0763 16.2894 11.4525 18.2926 11.4525 19.25C11.4525 22.86 11.2167 25.7333 15.8386 24.3671Z" fill="#F2ECD4"/>
<path d="M49.2215 15.3513V19.9811H58.481V24.6108H67.9842L68.2279 19.9811H58.481V15.1077L49.2215 15.3513Z" fill="#6E2D14"/>
<path d="M67.9842 15.1077L68.2279 15.3513L67.9842 15.1077Z" fill="#CF7A10"/>
<path d="M96.4937 20.2247L96.25 24.3671L105.753 24.6107L105.997 20.2247L96.25 19.981C96.5056 18.9069 97.04 16.1505 95.9289 15.4287C94.4595 14.4743 91.1283 15.1076 89.4272 15.1076H74.5633C72.9485 15.1076 70.0081 14.5366 68.549 15.2545C67.6143 15.7145 67.6143 19.374 68.549 19.834C70.5335 20.8104 74.788 19.981 77 19.981H84.5538C88.4391 19.981 92.6681 19.5144 96.4937 20.2247Z" fill="#6E2D14"/>
<path d="M95.519 15.1077V15.3513L96.4937 15.595L95.519 15.1077Z" fill="#CF7A10"/>
<path d="M96.981 15.1077L97.2247 15.3513L96.981 15.1077ZM105.266 15.1077L105.509 15.3513L105.266 15.1077Z" fill="#F2BE89"/>
<path d="M105.591 15.2703L105.672 15.4326L105.591 15.2703Z" fill="#F49B26"/>
<path d="M105.753 15.595L107.215 15.3513L105.753 15.595Z" fill="#CF7A10"/>
<path d="M105.997 20.2247C107.63 20.0103 109.224 19.981 110.87 19.981C111.926 19.981 113.704 20.3209 114.663 19.8341C115.564 19.377 115.622 15.9573 114.866 15.3581C114.357 14.9556 113.421 15.1078 112.82 15.1076C111.319 15.1069 107.026 14.398 106.004 15.7385C105.281 16.6856 105.742 19.155 105.997 20.2247Z" fill="#6E2D14"/>
<path d="M148.477 15.2703L148.558 15.4326L148.477 15.2703Z" fill="#F2BE89"/>
<path d="M148.639 19.7374L143.522 20.2247V29.4842H139.136V39.7184L139.527 43.3666L143.522 43.6171L148.145 43.2265L148.396 38.2564V24.3671L152.46 24.3603L153.025 21.9304L152.782 15.1076C151.67 15.1832 149.996 14.7436 148.989 15.2546C147.864 15.8255 148.355 18.7768 148.639 19.7374Z" fill="#F2ECD4"/>
<path d="M20.712 15.3513L20.9557 15.595L20.712 15.3513Z" fill="#F2BE89"/>
<path d="M58.481 15.3513V19.4937H58.7247L58.481 15.3513ZM115.5 15.3513L115.744 15.595L115.5 15.3513Z" fill="#F49B26"/>
<path d="M67.7405 15.595V19.4937H67.9841L67.7405 15.595ZM105.509 15.595V17.5443H105.753L105.509 15.595ZM20.712 19.25V19.981H20.9557L20.712 19.25ZM58.481 19.4937L60.4303 19.981V19.7374L58.481 19.4937ZM66.2785 19.7374V19.981H67.7405L66.2785 19.7374Z" fill="#F2BE89"/>
<path d="M67.8217 19.6562L67.903 19.8185L67.8217 19.6562Z" fill="#F49B26"/>
<path d="M96.3311 19.6562L96.4125 19.8185L96.3311 19.6562Z" fill="#CF7A10"/>
<path d="M96.4937 19.4937C96.7683 19.9825 96.9501 19.9825 97.2247 19.4937H96.4937ZM105.51 19.4937L105.266 19.981L105.51 19.4937ZM148.396 19.4937L148.639 19.7373L148.396 19.4937Z" fill="#F2BE89"/>
<path d="M105.509 19.7373L105.753 19.981L105.509 19.7373Z" fill="#F49B26"/>
<path d="M147.665 19.7373V19.981H148.396L147.665 19.7373ZM143.522 19.981L143.766 20.2246L143.522 19.981Z" fill="#F2BE89"/>
<path d="M48.9778 20.2246L49.2215 20.4683L48.9778 20.2246ZM49.7089 20.2246L49.9525 20.4683L49.7089 20.2246ZM50.4399 20.2246L50.6835 20.4683L50.4399 20.2246ZM85.7721 20.2246L86.0158 20.4683L85.7721 20.2246Z" fill="#F49B26"/>
<path d="M143.522 20.4683L143.766 20.7119L143.522 20.4683ZM30.2152 20.7119L30.4589 20.9556L30.2152 20.7119ZM143.278 20.7119L143.522 20.9556L143.278 20.7119Z" fill="#F2BE89"/>
<path d="M50.4399 20.9558L50.6835 21.1995L50.4399 20.9558Z" fill="#F49B26"/>
<path d="M30.2152 21.1995L30.4589 21.4431L30.2152 21.1995ZM5.84813 23.3925V24.1235H6.0918L5.84813 23.3925Z" fill="#F2BE89"/>
<path d="M6.33544 23.3923L6.57911 23.636L6.33544 23.3923Z" fill="#F49B26"/>
<path d="M6.33544 23.6362L6.57911 23.8799L6.33544 23.6362Z" fill="#F2BE89"/>
<path d="M6.33544 23.8796V24.6107H6.57911L6.33544 23.8796Z" fill="#F49B26"/>
<path d="M11.2089 23.8796V25.098H11.4525L11.2089 23.8796Z" fill="#CF7A10"/>
<path d="M152.782 24.1233L152.538 24.367L154 24.8543V24.6106L152.782 24.1233ZM6.01062 24.4481L6.17291 24.5295L6.01062 24.4481ZM11.4525 24.367L11.6962 24.6106L11.4525 24.367ZM15.5949 24.367L15.8386 33.8701H16.0823C16.0823 31.4834 17.0455 26.2817 15.5949 24.367ZM30.2152 24.367V24.6106H30.9462L30.2152 24.367ZM31.1899 24.367V24.6106H32.6519L31.1899 24.367ZM33.1392 24.367V24.6106H37.038L33.1392 24.367ZM37.769 24.367V24.6106H38.7437L37.769 24.367ZM148.396 24.367V24.6106H150.101L148.396 24.367Z" fill="#F2BE89"/>
<path d="M153.025 24.3672L153.269 24.6109L153.025 24.3672Z" fill="#CF7A10"/>
<path d="M5.84813 24.8545V25.0982L6.82281 25.3419L8.52851 24.8545H5.84813ZM8.77218 24.6108L9.01585 24.8545L8.77218 24.6108ZM9.74687 24.6108V24.8545H11.2089L9.74687 24.6108Z" fill="#F2BE89"/>
<path d="M11.4525 33.8703L15.448 33.6198L15.8386 31.19V24.6108L11.8431 24.8613L11.4525 27.2912V33.8703Z" fill="#6E2D14"/>
<path d="M148.396 24.6108C148.396 30.6327 149.546 38.0064 148.152 43.8608C149.13 43.006 148.639 40.4641 148.639 39.2311V29.2406C148.639 27.8061 148.954 25.9418 148.396 24.6108Z" fill="#CF7A10"/>
<path d="M148.639 24.6108V43.6172L152.775 43.2266L153.025 38.2564V24.6108H148.639Z" fill="#6E2D14"/>
<path d="M155.949 24.6108V24.8545L157.411 25.0982L155.949 24.6108ZM39.4747 24.8545L39.7184 25.0982L39.4747 24.8545Z" fill="#F2BE89"/>
<path d="M96.981 24.8542L97.2247 25.0979L96.981 24.8542Z" fill="#F49B26"/>
<path d="M7.47269 25.1793L7.63498 25.2607L7.47269 25.1793ZM9.74687 25.0981L9.99054 27.2912H10.2342V25.3418H10.7216V27.2912H10.9652V25.0981H9.74687Z" fill="#F2BE89"/>
<path d="M11.2089 25.0981V33.383H11.4525L11.2089 25.0981Z" fill="#F49B26"/>
<path d="M153.675 25.1792L153.837 25.2606L153.675 25.1792ZM153.025 26.5601V27.2911H153.269L153.025 26.5601ZM143.278 28.9968L142.547 29.2405V29.4841L143.278 28.9968Z" fill="#F2BE89"/>
<path d="M138.892 29.2405L139.136 29.4841L138.892 29.2405Z" fill="#CF7A10"/>
<path d="M139.136 29.2405L139.38 29.4841L139.136 29.2405ZM139.786 29.3216L139.948 29.403L139.786 29.3216ZM10.7216 30.9462L10.9652 31.1898L10.7216 30.9462ZM39.4747 31.4335V33.6266H39.7184L39.4747 31.4335ZM10.7216 32.1645L10.4779 33.3829L10.7216 32.1645ZM9.82801 33.3017L9.90939 33.464L9.82801 33.3017Z" fill="#F2BE89"/>
<path d="M11.2089 33.3828L11.4525 33.6265L11.2089 33.3828Z" fill="#CF7A10"/>
<path d="M11.2089 33.6267L11.4525 33.8704L11.2089 33.6267Z" fill="#F49B26"/>
<path d="M15.5949 33.6267L15.8386 34.6014L20.712 34.1141V33.8704L15.5949 33.6267Z" fill="#CF7A10"/>
<path d="M60.674 33.6267L60.9177 33.8704L60.674 33.6267ZM106.728 33.6267L106.972 33.8704L106.728 33.6267ZM9.9905 33.8704V34.8451V33.8704ZM11.2089 33.8704L11.6962 34.3577L11.2089 33.8704Z" fill="#F2BE89"/>
<path d="M11.4525 33.8704L11.6962 34.114L11.4525 33.8704Z" fill="#CF7A10"/>
<path d="M11.6962 33.8704V34.114H15.5949L11.6962 33.8704Z" fill="#F49B26"/>
<path d="M20.712 33.8704V42.8862H20.9557C20.9557 40.2913 21.7137 36.2578 20.712 33.8704ZM35.0886 33.8704V34.114H39.4747L35.0886 33.8704ZM53.6076 34.3577L54.3386 34.114L53.6076 34.3577Z" fill="#F2BE89"/>
<path d="M53.6076 34.3577V38.9875C52.7048 38.7206 50.1575 38.2689 49.472 39.1344C48.9993 39.7312 49.2215 40.9588 49.2215 41.6678V48.247H58.481V53.1204H65.3038L67.7337 52.7298L67.9842 49.709V42.1552L67.7337 39.1344L63.3544 38.7438L63.1108 33.8704C60.1787 34.0592 56.3021 33.0611 53.6076 34.3577Z" fill="#F2ECD4"/>
<path d="M62.6234 33.8704L62.8671 34.114L62.6234 33.8704ZM63.1107 33.8704L63.3544 34.114L63.1107 33.8704ZM105.753 33.8704L105.997 34.114L105.753 33.8704Z" fill="#F2BE89"/>
<path d="M105.753 38.9873L101.367 38.7437V53.1202H107.946L110.376 52.7296L110.627 48.2468H119.886V41.424L119.495 38.9942L115.013 38.7437C115.263 37.693 115.736 35.1827 115.006 34.2609C114.587 33.7326 113.653 33.8715 113.063 33.8702C111.504 33.8671 107.386 33.137 106.144 34.1207C105.226 34.8476 105.753 37.9081 105.753 38.9873Z" fill="#F2ECD4"/>
<path d="M115.013 33.8704L115.256 34.114L115.013 33.8704ZM15.5949 34.114L15.8386 34.3577L15.5949 34.114Z" fill="#F2BE89"/>
<path d="M20.712 43.6169V34.1138L16.2728 34.3643L16.0728 36.3068L16.0789 41.4239L16.285 43.3664L20.712 43.6169Z" fill="#6E2D14"/>
<path d="M63.3544 34.1138C63.3544 35.2573 62.7774 38.4633 64.0854 38.7435V38.4998L63.3544 34.1138ZM14.1329 34.3574V34.8448L15.5949 34.6011L14.1329 34.3574ZM34.8449 34.6011V36.5505H35.0886L34.8449 34.6011ZM53.6076 34.6011V38.0125H53.8512L53.6076 34.6011ZM105.591 34.7636L105.672 34.9259L105.591 34.7636ZM10.7215 34.8448L10.9652 35.0885L10.7215 34.8448ZM11.4525 34.8448L11.6962 35.0885L11.4525 34.8448ZM15.5949 34.8448V43.1296H15.8386L15.5949 34.8448Z" fill="#F2BE89"/>
<path d="M15.8386 35.0886V42.8861H16.0823L15.8386 35.0886Z" fill="#CF7A10"/>
<path d="M34.8449 36.7942V37.7689H35.0886L34.8449 36.7942ZM34.9261 38.1751L35.0075 38.3374L34.9261 38.1751ZM53.3639 38.0125L53.6076 38.2562L53.3639 38.0125ZM115.256 38.0125L115.013 38.7436H115.744L115.256 38.0125ZM53.6076 38.2562L53.8513 38.4999L53.6076 38.2562ZM53.4451 38.6624L53.5265 38.8247L53.4451 38.6624Z" fill="#F2BE89"/>
<path d="M67.9842 38.5L68.2279 38.7437L67.9842 38.5Z" fill="#CF7A10"/>
<path d="M105.266 38.5L105.753 38.9873V38.5H105.266Z" fill="#F2BE89"/>
<path d="M115.256 38.5L115.5 38.7437L115.256 38.5Z" fill="#F49B26"/>
<path d="M30.2152 38.7437V38.9873H31.4335L30.2152 38.7437ZM31.6772 38.7437V38.9873H33.1392L31.6772 38.7437ZM33.7891 38.8248L33.9514 38.9062L33.7891 38.8248ZM34.3576 38.7437L34.6013 38.9873L34.3576 38.7437ZM49.1404 38.8248L49.3027 38.9062L49.1404 38.8248ZM67.903 38.8248L68.0653 38.9062L67.903 38.8248ZM101.123 38.7437V53.1202H101.367V43.3734L101.123 38.7437ZM119.642 38.7437L119.886 48.2468H120.13V41.424L119.642 38.7437ZM153.269 40.9367V42.8861H153.513L153.269 40.9367ZM138.892 42.8861L139.38 43.6171L138.892 42.8861ZM153.025 42.8861L152.782 43.8607H153.025V42.8861ZM153.513 42.8861L153.756 43.1297L153.513 42.8861Z" fill="#F2BE89"/>
<path d="M15.9198 43.2922L16.0011 43.4545L15.9198 43.2922Z" fill="#CF7A10"/>
<path d="M15.5949 43.3733L15.8386 43.617L15.5949 43.3733ZM20.712 43.3733L20.9557 43.617L20.712 43.3733ZM29.9715 43.3733L30.2152 43.617L29.9715 43.3733ZM148.152 43.3733L148.396 43.617L148.152 43.3733Z" fill="#F2BE89"/>
<path d="M152.782 43.3733L153.025 43.617L152.782 43.3733Z" fill="#CF7A10"/>
<path d="M153.675 43.4546L153.837 43.536L153.675 43.4546ZM15.5949 44.3481L19.4937 43.8608C18.4042 43.4037 16.2879 43.2791 15.5949 44.3481ZM19.7373 43.6171V45.0791H19.981V43.8608H20.2247V44.5918C20.7783 44.0686 20.3331 43.8091 19.7373 43.6171Z" fill="#F2BE89"/>
<path d="M20.4684 43.6172L20.7121 43.8609L20.4684 43.6172Z" fill="#F49B26"/>
<path d="M20.712 43.6172L20.9557 43.8609L20.712 43.6172Z" fill="#CF7A10"/>
<path d="M20.712 53.1204H16.0822V62.3799H20.712V53.1204H25.5854L25.8291 43.8609C24.8449 43.5699 21.6954 43.0823 20.9625 44.0078C20.4898 44.6046 20.712 45.8322 20.712 46.5412V53.1204Z" fill="#6E2D14"/>
<path d="M25.5854 43.6172V53.1204H30.2152V43.6172H25.5854ZM138.892 43.6172L139.136 53.1204H143.766C143.122 50.4144 143.122 46.3232 143.766 43.6172H138.892Z" fill="#CF7A10"/>
<path d="M143.913 43.8675C143.193 44.4377 143.522 46.2204 143.522 47.0284C143.522 49.9856 142.487 53.1275 146.203 53.1202C146.747 53.1192 147.545 53.2343 148.005 52.8697C148.725 52.2995 148.396 50.5166 148.396 49.7088C148.396 46.7516 149.43 43.6097 145.715 43.6171C145.17 43.618 144.373 43.503 143.913 43.8675Z" fill="#6E2D14"/>
<path d="M148.802 43.6982L148.964 43.7796L148.802 43.6982Z" fill="#F49B26"/>
<path d="M149.127 43.6172V43.8609H149.858L149.127 43.6172Z" fill="#F2BE89"/>
<path d="M149.858 43.6172L150.101 43.8609L149.858 43.6172Z" fill="#F49B26"/>
<path d="M150.101 43.6172V43.8609H152.538L150.101 43.6172Z" fill="#F2BE89"/>
<path d="M152.538 43.6172L152.782 43.8609L152.538 43.6172ZM148.396 43.8609V52.633H148.639C148.639 50.102 149.373 46.1904 148.396 43.8609Z" fill="#F49B26"/>
<path d="M16.5696 44.1042V44.5916H17.057V44.1042H16.5696ZM148.883 44.8353L149.858 44.3479C149.27 44.0177 149.021 44.1898 148.883 44.8353ZM150.101 44.1042V44.3479H152.538L150.101 44.1042ZM153.025 44.1042V44.3479H153.756L153.025 44.1042ZM17.5443 44.3479L17.3006 44.8353L17.5443 44.3479ZM18.0316 44.3479V44.5916H19.4937L18.0316 44.3479ZM15.8386 44.5916L16.0823 44.8353L15.8386 44.5916ZM149.614 44.5916L149.858 44.8353L149.614 44.5916ZM152.294 44.5916L152.538 44.8353L152.294 44.5916ZM153.025 44.5916L153.269 44.8353L153.025 44.5916ZM153.756 44.5916L154 44.8353L153.756 44.5916ZM20.4684 44.8353V52.8764H20.712L20.4684 44.8353ZM148.883 45.3226V46.7846H149.127L148.883 45.3226ZM48.9778 46.7846V47.7593H49.2215L48.9778 46.7846ZM56.5316 48.2467L56.7753 48.4903L56.5316 48.2467ZM57.75 48.2467V48.4903H58.481L57.75 48.2467ZM110.627 48.2467V48.734L111.114 48.2467H110.627ZM148.883 50.6834V52.6327H149.127L149.37 50.6834H148.883ZM19.8185 52.5516L19.8999 52.7139L19.8185 52.5516ZM15.8386 52.6327L15.5949 53.6074H15.8386L16.3259 52.6327H15.8386ZM110.627 52.6327L110.87 52.8764L110.627 52.6327Z" fill="#F2BE89"/>
<path d="M148.396 52.6328V53.6075H148.639L148.396 52.6328Z" fill="#CF7A10"/>
<path d="M149.127 52.6328L149.37 52.8765L149.127 52.6328ZM152.782 52.6328L153.025 52.8765L152.782 52.6328Z" fill="#F2BE89"/>
<path d="M16.0822 52.8767V53.1204H19.7373L16.0822 52.8767Z" fill="#F49B26"/>
<path d="M19.7373 52.8767L19.981 53.1204L19.7373 52.8767Z" fill="#CF7A10"/>
<path d="M19.981 52.8767V53.1204H20.712L19.981 52.8767Z" fill="#F49B26"/>
<path d="M67.7405 52.8767L67.9842 53.1204L67.7405 52.8767ZM110.383 52.8767L110.627 53.1204L110.383 52.8767Z" fill="#F2BE89"/>
<path d="M148.639 52.8767V53.1204H149.614L148.639 52.8767Z" fill="#F49B26"/>
<path d="M149.614 52.8767L149.858 53.1204L149.614 52.8767Z" fill="#F2BE89"/>
<path d="M149.858 52.8767V53.1204H152.782L149.858 52.8767Z" fill="#F49B26"/>
<path d="M152.782 52.8767L153.025 53.1204L152.782 52.8767ZM15.8386 53.1204V53.8514H16.0823L15.8386 53.1204ZM20.712 53.1204V58.4811H20.9557V57.5065H21.1994L25.5855 57.7501V53.1204H20.712Z" fill="#CF7A10"/>
<path d="M66.6847 53.2014L66.847 53.2828L66.6847 53.2014Z" fill="#F2BE89"/>
<path d="M148.396 53.1204V62.3799H153.025V71.883H157.899V81.3862H162.528L162.772 74.5634L162.382 72.1335L157.899 71.883V62.3799H153.025V53.1204H148.396Z" fill="#6E2D14"/>
<path d="M153.025 53.1204L153.513 54.5824L154 53.364L153.025 53.1204Z" fill="#F2BE89"/>
<path d="M21.2805 53.5264L21.3619 53.6887L21.2805 53.5264Z" fill="#F49B26"/>
<path d="M153.837 53.7703L153.919 53.9326L153.837 53.7703ZM15.5949 53.8514L15.8386 54.0951L15.5949 53.8514Z" fill="#F2BE89"/>
<path d="M148.152 53.8513L148.396 54.095L148.152 53.8513ZM15.8386 54.095V71.883L11.2089 71.3956L11.4526 81.3861H5.84813V81.6298H6.57914V100.149H11.2089L11.4526 81.3861L15.448 81.1356L15.8386 77.4874L16.0823 67.2532H20.7121V62.3798H16.0823L15.8386 54.095ZM148.396 54.095L148.639 54.3387L148.396 54.095Z" fill="#CF7A10"/>
<path d="M15.5949 54.3386V62.3798H15.8386L15.5949 54.3386Z" fill="#F2BE89"/>
<path d="M20.9557 54.3386L21.1994 54.5823L20.9557 54.3386Z" fill="#F49B26"/>
<path d="M109.896 56.5317L110.139 56.7754L109.896 56.5317ZM44.1044 58.4811H44.3481L48.4905 57.9938H58.481V62.3798C58.8414 61.5214 59.1652 58.659 58.3341 58.0006C57.7373 57.5279 56.5097 57.7501 55.8006 57.7501H49.2215C47.8097 57.7501 44.951 57.1755 44.1044 58.4811ZM110.627 57.7501V57.9938H124.76V62.6235C125.129 61.7422 125.461 58.6726 124.613 58.0006C123.821 57.3739 121.818 57.7501 120.861 57.7501H110.627Z" fill="#CF7A10"/>
<path d="M44.3481 57.9937V62.3797H39.4747C39.4747 65.1722 38.7875 67.26 42.1551 67.2531C42.7448 67.2519 43.6792 67.3906 44.0976 66.8625C44.8128 65.9597 44.3481 63.4901 44.3481 62.3797H58.481V57.9937H44.3481ZM110.627 57.9937V62.3797H101.367V67.2531H107.946L110.376 66.8625L110.627 62.3797H124.76V57.9937H110.627Z" fill="#6E2D14"/>
<path d="M20.712 60.4304V62.3798H20.9557L20.712 60.4304Z" fill="#CF7A10"/>
<path d="M153.025 62.1362L153.269 62.3799L153.025 62.1362Z" fill="#F2BE89"/>
<path d="M11.2089 62.3796V70.1771H11.4525L11.2089 62.3796Z" fill="#F49B26"/>
<path d="M11.4525 62.3796V69.2024L11.8431 71.6323L15.8386 71.8828V62.3796H11.4525Z" fill="#6E2D14"/>
<path d="M44.3481 62.3796L44.5918 62.6233L44.3481 62.3796Z" fill="#CF7A10"/>
<path d="M58.481 62.3796V67.2531H65.3038L67.7337 66.8624L67.9842 62.3796H58.481Z" fill="#6E2D14"/>
<path d="M101.123 62.3796V67.4967H101.367L101.123 62.3796ZM110.627 62.3796L110.87 62.6233L110.627 62.3796Z" fill="#CF7A10"/>
<path d="M124.759 67.2531L128.999 67.0026L129.389 62.3796L125.15 62.6301L124.759 67.2531Z" fill="#6E2D14"/>
<path d="M129.389 62.3796C129.389 63.9289 129.837 66.0988 128.658 67.2531V67.4967C130.15 67.0016 129.912 63.6263 129.389 62.3796ZM148.396 62.3796V67.0094L153.025 67.2531V62.3796H148.396Z" fill="#CF7A10"/>
<path d="M9.9905 62.8672V63.8419H10.2342L9.9905 62.8672ZM10.7215 63.1109V64.0855H10.9652L10.7215 63.1109ZM10.7215 64.3292V66.5223H10.9652L10.7215 64.3292Z" fill="#F2BE89"/>
<path d="M39.231 66.2786L39.7183 67.2532L39.231 66.2786ZM44.3481 66.2786L42.8861 67.2532V67.4969C43.7621 67.4682 44.6987 67.3488 44.3481 66.2786Z" fill="#CF7A10"/>
<path d="M100.88 66.2786L101.123 66.5222L100.88 66.2786Z" fill="#F2BE89"/>
<path d="M110.627 66.2786L110.383 67.2532L110.627 66.2786ZM67.7405 67.0096L67.4968 67.4969H67.9842L67.7405 67.0096ZM39.7183 67.2532V67.4969H40.693L39.7183 67.2532ZM59.6182 67.3344L59.7805 67.4158L59.6182 67.3344ZM64.3291 67.2532V67.4969H66.2785L64.3291 67.2532ZM66.9283 67.3344L67.0906 67.4158L66.9283 67.3344ZM109.165 67.2532V67.4969H110.383L109.165 67.2532ZM125.734 67.2532L125.978 67.4969L125.734 67.2532Z" fill="#CF7A10"/>
<path d="M10.4779 70.1772L10.7216 70.4209L10.4779 70.1772Z" fill="#F2BE89"/>
<path d="M11.2089 70.1772L11.4525 70.4209L11.2089 70.1772Z" fill="#CF7A10"/>
<path d="M161.798 70.1772V71.3956H162.041L161.798 70.1772ZM162.529 70.1772L162.772 70.4209L162.529 70.1772ZM163.422 70.2584L163.584 70.3398L163.422 70.2584ZM9.82801 70.5834L9.90939 70.7457L9.82801 70.5834Z" fill="#F2BE89"/>
<path d="M11.2089 70.4209L11.4525 70.6646L11.2089 70.4209Z" fill="#F49B26"/>
<path d="M152.863 70.5835L152.944 70.7458L152.863 70.5835Z" fill="#CF7A10"/>
<path d="M6.25431 70.7457L6.4166 70.8271L6.25431 70.7457ZM7.22899 70.7457L7.39128 70.8271L7.22899 70.7457ZM10.4779 70.6646L9.99052 71.6392H10.7215L10.9652 70.6646H10.4779Z" fill="#F2BE89"/>
<path d="M11.2089 70.6646L11.4525 70.9082L11.2089 70.6646Z" fill="#CF7A10"/>
<path d="M162.285 70.6646V70.9082H163.747L162.285 70.6646Z" fill="#F2BE89"/>
<path d="M11.29 71.0708L11.3714 71.2331L11.29 71.0708Z" fill="#F49B26"/>
<path d="M7.06649 71.1519V71.3955H7.7975L7.06649 71.1519ZM9.25952 71.1519L9.50319 71.3955L9.25952 71.1519ZM5.84813 71.3955L6.0918 71.6392L5.84813 71.3955Z" fill="#F2BE89"/>
<path d="M10.2342 71.3958L10.4779 71.6394L10.2342 71.3958Z" fill="#FECE8E"/>
<path d="M152.782 71.3958L153.025 71.6394L152.782 71.3958Z" fill="#CF7A10"/>
<path d="M162.285 71.3958L163.016 72.1268L162.285 71.3958ZM163.016 71.3958V71.6394H163.747L163.016 71.3958ZM6.57913 71.6394L6.8228 71.8831L6.57913 71.6394Z" fill="#F2BE89"/>
<path d="M6.98531 71.7205L7.14759 71.8018L6.98531 71.7205Z" fill="#F49B26"/>
<path d="M7.31012 71.6392L7.5538 71.8828L7.31012 71.6392Z" fill="#F2BE89"/>
<path d="M7.55379 71.6392V71.8828H11.2089L7.55379 71.6392ZM157.899 71.6392V71.8828H162.528L157.899 71.6392ZM6.33544 71.8828L6.57911 72.1265L6.33544 71.8828Z" fill="#F49B26"/>
<path d="M6.57913 71.8828V81.386H11.4525V71.8828H6.57913Z" fill="#6E2D14"/>
<path d="M153.025 71.8828V81.386L157.508 81.7766L157.899 86.5031V100.149H162.772V81.6296H163.747V81.386H162.772V79.924H162.528V81.386H157.899V71.8828H153.025ZM162.528 71.8828L162.772 72.1265L162.528 71.8828Z" fill="#CF7A10"/>
<path d="M6.33544 72.1267V79.9242H6.57911L6.33544 72.1267Z" fill="#F2BE89"/>
<path d="M77.2437 77.2436L81.8734 76.7563H91.6203C88.9323 75.4582 83.4254 76.5126 80.4114 76.5126C79.4682 76.5126 77.3884 76.0911 77.2437 77.2436Z" fill="#CF7A10"/>
<path d="M77.4873 81.386L73.1081 81.7766L72.8576 86.0158L77.2437 85.7721L77.4873 90.8892L82.3608 91.1329V105.022H75.538L73.1081 105.413L72.8576 109.652H101.123V105.022C96.8146 105.022 91.1163 104.046 86.9905 105.266V90.8892H91.6202V86.0158C92.7307 86.0158 95.2003 86.4804 96.1031 85.7653C96.6306 85.3474 96.4934 84.4119 96.4937 83.8227C96.4949 80.656 94.1452 81.386 91.6202 81.386V76.7563H81.3861C80.4428 76.7563 78.443 76.38 77.6681 77.0068C76.7427 77.7556 77.2719 80.3555 77.4873 81.386Z" fill="#6E2D14"/>
<path d="M77 77.4873L77.2437 77.731L77 77.4873Z" fill="#CF7A10"/>
<path d="M162.772 77.9746V78.7056H163.016L162.772 77.9746ZM0.32482 80.0865L0.406202 80.2488L0.32482 80.0865ZM0.974688 79.924L0.731017 80.655L0.974688 79.924Z" fill="#F2BE89"/>
<path d="M6.33544 79.9241V80.6551H6.57911L6.33544 79.9241Z" fill="#F49B26"/>
<path d="M77.2437 79.9241L77.4874 80.1677L77.2437 79.9241Z" fill="#CF7A10"/>
<path d="M162.772 79.9241C162.93 81.9431 165.122 81.3861 166.671 81.3861V81.1424H163.016L162.772 79.9241ZM163.259 79.9241L163.503 80.1677L163.259 79.9241ZM166.184 79.9241L166.427 80.1677L166.184 79.9241ZM167.158 79.9241L167.402 80.1677L167.158 79.9241ZM3.89874 80.1677V80.4114H5.60444L3.89874 80.1677ZM5.84811 80.1677L1.94938 80.6551V80.8988C2.72133 80.8988 6.28331 81.3223 5.84811 80.1677Z" fill="#F2BE89"/>
<path d="M77.2437 80.4114L77.4874 80.655L77.2437 80.4114Z" fill="#CF7A10"/>
<path d="M6.33544 80.655L6.57911 80.8987L6.33544 80.655ZM163.747 80.655V80.8987H165.94L163.747 80.655ZM166.184 80.655V80.8987H167.646L166.184 80.655Z" fill="#F2BE89"/>
<path d="M6.33544 80.8987L6.57911 81.1424L6.33544 80.8987Z" fill="#F49B26"/>
<path d="M77.2437 80.8987L77 81.386H77.4873L77.2437 80.8987Z" fill="#CF7A10"/>
<path d="M0.56851 81.3049L0.649892 81.4671L0.56851 81.3049ZM1.46205 81.1423V102.829C1.46205 104.098 0.447647 109.376 1.70572 109.652V109.408L1.21838 109.164C2.45257 108.086 1.70572 103.703 1.70572 102.098V81.386H6.33547L1.46205 81.1423Z" fill="#F2BE89"/>
<path d="M73.1012 81.1423L73.3449 81.386L73.1012 81.1423ZM96.0063 81.1423L96.25 81.386L96.0063 81.1423Z" fill="#CF7A10"/>
<path d="M162.772 81.1423L163.016 81.386L162.772 81.1423Z" fill="#F49B26"/>
<path d="M167.077 81.2236L167.239 81.305L167.077 81.2236Z" fill="#F2BE89"/>
<path d="M1.70568 81.3862L1.94936 81.6299L1.70568 81.3862Z" fill="#CF7A10"/>
<path d="M1.70574 109.652C2.74694 109.652 5.58644 110.152 6.29187 109.261C7.36305 107.909 6.57915 103.546 6.57915 101.854V81.6297C5.55184 81.4389 2.71454 80.8193 1.95623 81.7766C0.916977 83.0888 1.70574 87.5299 1.70574 89.1835V109.652Z" fill="#6E2D14"/>
<path d="M72.6139 81.3862V81.8736L73.1013 81.3862H72.6139ZM96.3312 81.5488L96.4125 81.711L96.3312 81.5488Z" fill="#CF7A10"/>
<path d="M162.772 81.6299V101.855C162.772 103.508 161.983 107.949 163.023 109.261C163.708 110.127 166.395 109.652 167.402 109.652V90.6457L167.158 81.3862L162.772 81.6299Z" fill="#6E2D14"/>
<path d="M165.696 81.3862L165.94 81.6299L165.696 81.3862ZM166.59 81.4674L166.752 81.5488L166.59 81.4674ZM167.158 81.3862L167.402 91.1331V109.652H167.646V88.6964C167.646 87.0552 168.417 82.4859 167.158 81.3862Z" fill="#CF7A10"/>
<path d="M0.974688 81.6296L1.21836 81.8733L0.974688 81.6296Z" fill="#F2BE89"/>
<path d="M6.82282 81.6296L7.06649 81.8733L6.82282 81.6296ZM7.55383 81.6296L7.7975 81.8733L7.55383 81.6296ZM162.041 81.6296L162.285 81.8733L162.041 81.6296Z" fill="#F49B26"/>
<path d="M72.0454 85.8533L72.2077 85.9347L72.0454 85.8533Z" fill="#F2BE89"/>
<path d="M72.6139 85.7722L72.8576 86.0159L72.6139 85.7722ZM77 85.7722L77.2437 86.0159L77 85.7722ZM96.4125 85.8534L96.5748 85.9347L96.4125 85.8534Z" fill="#CF7A10"/>
<path d="M97.4683 85.7722V86.0159H98.9304L97.4683 85.7722ZM109.327 85.8534L109.489 85.9347L109.327 85.8534Z" fill="#F2BE89"/>
<path d="M58.481 86.0158V90.8893H49.2215V95.7627H30.2152L29.9647 91.2799L26.3165 90.8893H15.8386V95.7627L11.8431 96.0132L11.4525 100.392H6.57913V106.972L7.0036 109.401L11.6962 109.652L11.4525 114.282L15.6917 114.672L16.0823 119.155L20.9557 119.399L21.1124 123.534L23.8798 123.785L30.4589 124.028L30.2152 128.658H36.7943L39.2534 129.049L39.7184 133.288H44.3481L44.5918 137.918H51.1709L53.6008 138.483L53.8513 142.791H60.4304C61.1994 142.791 62.3583 142.591 63.0333 143.042C64.3937 143.949 62.6541 146.835 64.3652 147.343C67.0629 148.144 71.0142 147.421 73.8323 147.421H94.5443H102.098C102.988 147.421 104.371 147.676 105.188 147.274C106.274 146.74 105.78 143.952 105.51 143.035L115.013 142.791L115.263 138.483L117.693 137.918H124.76V133.532L128.965 133.281L129.389 128.658H139.136L138.892 123.785H145.472C146.181 123.785 147.408 124.007 148.005 123.534C148.87 122.849 148.419 120.302 148.152 119.399L153.025 119.155L152.782 114.525H157.655L157.899 109.652L162.138 109.401L162.528 106.972V100.392H157.899V95.7627H153.025V90.8893H142.791L139.387 91.2799L139.136 95.7627H124.76V90.8893H110.627V86.0158H91.6203V90.8893H87.2342V105.022H101.367V109.652H114.525L119.495 109.401L119.886 105.022L124.613 105.413L125.003 109.652L120.38 110.043L119.886 114.769C114.176 113.409 106.997 114.525 101.123 114.525C101.123 113.482 101.625 110.609 100.733 109.902C99.5564 108.971 95.771 109.652 94.3006 109.652H79.4367C77.8219 109.652 74.8815 109.081 73.4224 109.799C72.3176 110.343 72.8235 113.342 73.1013 114.282C67.175 115.693 59.7035 114.525 53.6076 114.525L53.3571 110.043L48.7342 109.652C49.444 108.322 49.4016 106.455 48.9779 105.022H53.8513L54.2419 109.401L58.2374 109.652H68.4715L72.467 109.365L72.6139 105.022H79.1931L81.7265 104.772L82.1171 101.611V94.057L81.8666 91.2799L77 90.8893C77.2376 89.8917 77.7773 87.0817 76.8748 86.3226C75.8959 85.4995 73.0871 86.0158 71.8829 86.0158H58.481Z" fill="#F2ECD4"/>
<path d="M76.269 86.0159L76.5127 86.2595L76.269 86.0159ZM76.9189 86.097L77.0812 86.1784L76.9189 86.097ZM95.519 86.0159V86.2595H96.25L95.519 86.0159Z" fill="#F2BE89"/>
<path d="M77.2437 86.2595V86.9905H77.4874L77.2437 86.2595Z" fill="#CF7A10"/>
<path d="M110.627 86.7468L110.87 86.9905L110.627 86.7468Z" fill="#F2BE89"/>
<path d="M77.2437 87.2341L77.4874 87.4778L77.2437 87.2341Z" fill="#CF7A10"/>
<path d="M110.627 87.2341L110.87 87.4778L110.627 87.2341Z" fill="#F2BE89"/>
<path d="M77.2437 87.7214V90.8892H77.4874L77.2437 87.7214Z" fill="#CF7A10"/>
<path d="M58.2373 90.1582L58.481 90.4019L58.2373 90.1582ZM77.0811 90.5644L77.1625 90.7267L77.0811 90.5644ZM16.8133 90.6455L17.057 90.8892L16.8133 90.6455ZM17.5443 90.6455V90.8892H28.9968C26.0299 89.6441 20.7766 90.6455 17.5443 90.6455ZM29.403 90.7267L29.5653 90.8081L29.403 90.7267ZM49.4652 90.6455V90.8892H50.4399L49.4652 90.6455ZM50.6835 90.6455V90.8892H56.5316L50.6835 90.6455ZM57.2627 90.6455V90.8892H58.481L57.2627 90.6455ZM110.627 90.6455V90.8892H124.272L119.886 90.6455H110.627ZM140.354 90.6455V90.8892H141.816L140.354 90.6455ZM142.304 90.6455V90.8892H152.294C149.675 89.79 145.154 90.6455 142.304 90.6455ZM152.538 90.6455L152.782 90.8892L152.538 90.6455ZM15.5949 90.8892L15.8386 91.1329L15.5949 90.8892ZM29.9715 90.8892L30.2152 91.1329L29.9715 90.8892ZM48.9778 90.8892V91.6202H49.2215L48.9778 90.8892ZM77.6499 90.9704L77.8122 91.0517L77.6499 90.9704ZM81.8734 90.8892L82.1171 91.1329L81.8734 90.8892Z" fill="#F2BE89"/>
<path d="M86.9905 90.8892L87.2342 91.1328L86.9905 90.8892Z" fill="#F49B26"/>
<path d="M87.4778 90.8892L87.7215 91.1328L87.4778 90.8892ZM139.136 90.8892L139.38 91.1328L139.136 90.8892ZM30.2152 91.1328L30.4589 91.3765L30.2152 91.1328Z" fill="#F2BE89"/>
<path d="M82.1171 91.1328L82.3608 91.3765L82.1171 91.1328Z" fill="#CF7A10"/>
<path d="M86.9905 91.1328V96.0062H87.2342L86.9905 91.1328ZM124.759 91.3765V95.7626H139.136V94.5442H138.892V95.5189H125.003L124.759 91.3765ZM138.892 91.3765L139.136 91.6202L138.892 91.3765Z" fill="#F2BE89"/>
<path d="M82.1171 91.6204V105.022H82.3608V96.0064L82.1171 91.6204Z" fill="#CF7A10"/>
<path d="M153.025 91.6204V93.8134H153.269L153.025 91.6204ZM153.025 94.0571L153.513 95.7628L153.025 94.0571ZM30.2152 95.2754L32.1646 95.7628V95.5191L30.2152 95.2754ZM48.9779 95.2754C44.3776 96.6351 37.9457 95.5191 33.1393 95.5191V95.7628H45.3228L48.9779 95.2754ZM11.5337 95.6816L11.6151 95.8439L11.5337 95.6816ZM11.9399 95.5191V95.7628H13.1582L11.9399 95.5191ZM13.6456 95.5191V95.7628H14.3766L13.6456 95.5191ZM15.1076 95.5191V95.7628H15.8386L15.1076 95.5191ZM153.756 95.5191V95.7628H156.68L153.756 95.5191ZM157.087 95.6002L157.249 95.6816L157.087 95.6002Z" fill="#F2BE89"/>
<path d="M11.2089 95.7627V99.9051H11.4525L11.2089 95.7627Z" fill="#F49B26"/>
<path d="M86.9905 96.25V96.981H87.2342L86.9905 96.25ZM86.9905 97.2247V103.316H87.2342L86.9905 97.2247Z" fill="#F2BE89"/>
<path d="M7.31016 99.4177L7.55383 99.6614L7.31016 99.4177ZM10.7216 99.4177L10.9652 99.6614L10.7216 99.4177ZM6.82282 99.9051L7.06649 100.149L6.82282 99.9051Z" fill="#F49B26"/>
<path d="M11.2089 99.905L10.9652 100.392H11.4525L11.2089 99.905Z" fill="#F2BE89"/>
<path d="M162.285 99.905L162.772 100.392L162.285 99.905Z" fill="#F49B26"/>
<path d="M6.57913 100.149V100.392H7.31014L6.57913 100.149ZM7.55381 100.149V100.392H10.4779L7.55381 100.149ZM157.899 100.149V100.392H162.528L157.899 100.149ZM162.528 100.392L162.285 109.652H162.528C163.166 107.494 163.402 102.475 162.528 100.392ZM87.0717 103.723L87.153 103.885L87.0717 103.723ZM86.9905 104.291V105.022H87.2342L86.9905 104.291ZM81.8734 104.778L82.1171 105.022L81.8734 104.778ZM48.9779 105.022L49.2215 105.266L48.9779 105.022Z" fill="#F2BE89"/>
<path d="M49.2215 105.022L49.4652 105.266L49.2215 105.022Z" fill="#CF7A10"/>
<path d="M53.6076 105.022C52.5269 105.022 50.7703 104.685 49.7864 105.169C46.9968 106.542 50.9682 112.278 53.3571 109.261C54.0438 108.394 53.6076 106.085 53.6076 105.022Z" fill="#6E2D14"/>
<path d="M53.6076 105.022L53.8513 114.525H54.0949L53.6076 105.022Z" fill="#CF7A10"/>
<path d="M72.6139 105.022V107.215H72.8576L72.6139 105.022Z" fill="#F2BE89"/>
<path d="M72.8576 105.022L73.1013 105.266L72.8576 105.022ZM86.9905 105.022L87.2342 105.266L86.9905 105.022ZM101.123 105.022V109.652H101.367L101.123 105.022Z" fill="#CF7A10"/>
<path d="M119.886 105.022L120.13 105.266L119.886 105.022Z" fill="#F2BE89"/>
<path d="M120.13 105.022L120.52 109.401L124.76 109.652V105.022H120.13Z" fill="#6E2D14"/>
<path d="M119.886 105.266L119.642 114.525H119.886C120.536 112.326 120.778 107.392 119.886 105.266Z" fill="#CF7A10"/>
<path d="M124.759 105.266V109.652H125.003L124.759 105.266Z" fill="#F2BE89"/>
<path d="M1.38087 109.246L1.54316 109.327L1.38087 109.246Z" fill="#FECE8E"/>
<path d="M6.41656 109.327L6.49795 109.489L6.41656 109.327Z" fill="#CF7A10"/>
<path d="M6.57911 109.165L6.82278 109.408L6.57911 109.165ZM48.9779 109.165L48.7342 109.652H49.2215L48.9779 109.165ZM0 109.408V110.139H0.243671L0 109.408ZM0.487342 109.408L0.731013 109.652L0.487342 109.408Z" fill="#F2BE89"/>
<path d="M6.57913 109.408L6.8228 109.652L6.57913 109.408Z" fill="#F49B26"/>
<path d="M10.3967 109.489L10.559 109.571L10.3967 109.489ZM10.9652 109.408L11.2088 109.652L10.9652 109.408Z" fill="#F2BE89"/>
<path d="M49.2215 109.408L49.4652 109.652L49.2215 109.408Z" fill="#CF7A10"/>
<path d="M53.8512 109.408L54.0949 109.652L53.8512 109.408ZM72.3702 109.408V109.652L73.1012 109.896L72.3702 109.408ZM119.642 109.408L119.886 109.652L119.642 109.408Z" fill="#F2BE89"/>
<path d="M162.529 109.408L163.016 109.896L162.529 109.408Z" fill="#F49B26"/>
<path d="M162.772 109.408L163.016 109.652L162.772 109.408Z" fill="#CF7A10"/>
<path d="M1.70568 109.652L1.94936 109.896L1.70568 109.652Z" fill="#F49B26"/>
<path d="M2.19307 109.652V109.896H5.84813L2.19307 109.652ZM6.0918 109.652V114.525C6.94514 113.78 6.94514 110.397 6.0918 109.652Z" fill="#F2BE89"/>
<path d="M6.57913 109.652L6.81988 114.089L11.2089 114.525V109.652H6.57913Z" fill="#6E2D14"/>
<path d="M11.2089 109.652V110.383H11.4525L11.2089 109.652Z" fill="#CF7A10"/>
<path d="M11.4525 109.652L11.6962 109.896L11.4525 109.652ZM53.3639 109.652L53.6076 109.896L53.3639 109.652Z" fill="#F2BE89"/>
<path d="M53.8513 109.652C53.8513 110.695 53.3498 113.568 54.2419 114.275C55.1057 114.959 57.4283 114.525 58.481 114.525H68.7152C69.7028 114.525 71.6453 114.889 72.467 114.238C73.0374 113.786 72.8576 112.724 72.8576 112.089C72.8576 108.662 69.6889 109.652 67.0095 109.652H61.8924H53.8513Z" fill="#6E2D14"/>
<path d="M72.6139 109.652L72.8576 109.896L72.6139 109.652Z" fill="#CF7A10"/>
<path d="M101.042 109.733L101.205 109.815L101.042 109.733Z" fill="#F2BE89"/>
<path d="M101.367 109.652V114.525H119.642L119.886 109.652H101.367Z" fill="#6E2D14"/>
<path d="M120.13 109.652L120.373 109.896L120.13 109.652Z" fill="#F2BE89"/>
<path d="M157.899 109.652V114.525H153.025V119.155C154.118 119.293 156.83 119.986 157.648 118.974C158.363 118.09 157.899 115.62 157.899 114.525L162.772 114.282L162.528 109.652H157.899Z" fill="#6E2D14"/>
<path d="M162.529 109.652V114.038H162.772L162.529 109.652Z" fill="#CF7A10"/>
<path d="M163.016 109.652V109.896H166.427L163.016 109.652ZM166.915 109.652L167.646 110.383L166.915 109.652ZM0.487307 109.896V110.383H0.974648L0.487307 109.896ZM1.21832 109.896L1.70566 110.627L1.21832 109.896Z" fill="#F2BE89"/>
<path d="M101.123 109.896V114.282H101.367L101.123 109.896Z" fill="#CF7A10"/>
<path d="M162.772 109.896V114.525H161.797V114.769C163.552 114.476 163.332 111.23 162.772 109.896ZM5.8481 110.139V111.114H6.09177L5.8481 110.139ZM163.422 110.221L163.584 110.302L163.422 110.221ZM166.184 110.139L166.427 110.87H166.671V110.139H166.184ZM0 110.627L0.243671 111.114H0.487342L0.731013 110.627H0Z" fill="#F2BE89"/>
<path d="M11.2089 110.627V113.063H11.4525L11.2089 110.627Z" fill="#CF7A10"/>
<path d="M163.341 110.789L163.422 110.952L163.341 110.789ZM163.747 110.627V110.87H164.722L163.747 110.627ZM165.777 110.789L165.859 110.952L165.777 110.789ZM0.974688 110.87L1.21836 111.114L0.974688 110.87ZM5.8481 113.063L6.09178 113.307L5.8481 113.063ZM163.259 113.063L163.503 113.307L163.259 113.063Z" fill="#F2BE89"/>
<path d="M11.2089 113.307L11.4525 113.551L11.2089 113.307Z" fill="#CF7A10"/>
<path d="M5.92926 113.713L6.01064 113.876L5.92926 113.713ZM163.422 113.632L163.584 113.713L163.422 113.632Z" fill="#F2BE89"/>
<path d="M11.2089 113.794V115.013H11.4525L11.2089 113.794Z" fill="#CF7A10"/>
<path d="M72.8576 114.038L73.1013 114.282L72.8576 114.038Z" fill="#F2BE89"/>
<path d="M6.74161 114.363L6.9039 114.444L6.74161 114.363ZM7.3101 114.282L7.55377 114.525L7.3101 114.282Z" fill="#CF7A10"/>
<path d="M11.4525 114.282L11.6962 114.525L11.4525 114.282Z" fill="#F49B26"/>
<path d="M11.6962 114.282V114.525H15.8386L16.2292 119.148L19.7373 119.399V119.155H16.0823L15.6917 114.532L11.6962 114.282ZM53.6076 114.282L53.8512 114.525L53.6076 114.282Z" fill="#F2BE89"/>
<path d="M72.5328 114.363L72.6951 114.444L72.5328 114.363Z" fill="#CF7A10"/>
<path d="M101.123 114.282L101.367 114.525L101.123 114.282Z" fill="#F2BE89"/>
<path d="M119.155 114.282L119.399 114.525L119.155 114.282Z" fill="#CF7A10"/>
<path d="M119.886 114.282L120.13 114.525L119.886 114.282ZM153.025 114.282V114.525H154L153.025 114.282ZM156.193 114.282L156.437 114.525L156.193 114.282ZM156.924 114.282L157.168 114.525L156.924 114.282ZM157.655 114.282L157.899 114.525L157.655 114.282Z" fill="#F2BE89"/>
<path d="M162.529 114.282L162.772 114.525L162.529 114.282Z" fill="#CF7A10"/>
<path d="M163.26 114.282L163.503 114.525L163.26 114.282Z" fill="#F2BE89"/>
<path d="M6.57913 114.525L6.8228 114.769L6.57913 114.525Z" fill="#F49B26"/>
<path d="M6.82282 114.525V114.769L7.7975 115.013L6.82282 114.525ZM9.74687 114.525L9.99054 118.911H10.2342C10.2342 117.495 9.79585 115.548 11.2089 114.769L9.74687 114.525Z" fill="#F2BE89"/>
<path d="M15.8386 114.525C14.8233 114.525 12.6738 114.118 11.8432 114.776C9.31069 116.782 13.3598 121.822 15.5881 119.008C16.3033 118.105 15.8386 115.636 15.8386 114.525Z" fill="#6E2D14"/>
<path d="M119.561 114.607L119.724 114.688L119.561 114.607ZM152.782 114.525L153.025 114.769L152.782 114.525ZM5.84813 114.769L6.0918 115.013L5.84813 114.769ZM6.57914 114.769L6.82281 115.013L6.57914 114.769ZM163.26 114.769L163.503 115.013L163.26 114.769ZM10.7215 115.013V119.399H10.9652L10.7215 115.013Z" fill="#F2BE89"/>
<path d="M11.2089 115.013V119.155H11.4525L11.2089 115.013Z" fill="#F49B26"/>
<path d="M9.9905 119.155L11.2089 120.861L9.9905 119.155ZM10.9652 119.886L15.5949 119.642V119.886H11.6962V120.13H15.5949V120.373H14.3766V120.617H15.5949V122.81H15.8386V119.642C14.6953 119.304 11.7147 118.857 10.9652 119.886Z" fill="#F2BE89"/>
<path d="M11.4525 119.155L11.6962 119.399L11.4525 119.155ZM15.5949 119.155L15.8386 120.13H16.0822L15.5949 119.155Z" fill="#CF7A10"/>
<path d="M15.8386 119.155L16.0823 119.399L15.8386 119.155ZM19.7374 119.155L19.981 119.399L19.7374 119.155Z" fill="#F49B26"/>
<path d="M19.981 119.155V119.399L20.712 119.886H20.9557L19.981 119.155ZM148.152 119.399V119.642L152.538 119.399H148.152Z" fill="#F2BE89"/>
<path d="M152.538 119.155V119.399H154V119.155H152.538Z" fill="#CF7A10"/>
<path d="M152.782 119.155L153.025 119.399L152.782 119.155Z" fill="#F2BE89"/>
<path d="M157.574 119.236L157.736 119.317L157.574 119.236Z" fill="#CF7A10"/>
<path d="M16.0822 119.399V123.785L20.4615 123.394L20.712 119.399H16.0822Z" fill="#6E2D14"/>
<path d="M148.396 119.399V120.13H148.639L148.396 119.399Z" fill="#CF7A10"/>
<path d="M148.639 119.399V123.785H153.025L152.775 119.789L148.639 119.399Z" fill="#6E2D14"/>
<path d="M153.025 119.399L153.269 119.642L153.025 119.399Z" fill="#F49B26"/>
<path d="M153.269 119.399V119.642H157.655L153.269 119.399ZM153.025 119.642V121.592V119.642ZM9.74681 119.886L9.99048 120.861H10.2341L9.74681 119.886Z" fill="#F2BE89"/>
<path d="M15.5949 119.886L15.8386 120.13L15.5949 119.886Z" fill="#FECE8E"/>
<path d="M153.513 120.373L157.899 120.13C156.876 119.701 154.281 119.494 153.513 120.373ZM11.5337 120.292L11.6151 120.455L11.5337 120.292ZM20.712 120.13L20.9557 120.373L20.712 120.13Z" fill="#F2BE89"/>
<path d="M15.5949 120.373L15.8386 120.617L15.5949 120.373Z" fill="#FECE8E"/>
<path d="M15.8386 120.373L16.0823 120.617L15.8386 120.373ZM148.396 120.373V123.785H139.136V124.028C141.835 124.028 146.249 123.186 148.639 124.516L148.396 120.373Z" fill="#CF7A10"/>
<path d="M156.437 120.373V120.617H157.411L156.437 120.373ZM153.756 120.617L154 120.861L153.756 120.617Z" fill="#F2BE89"/>
<path d="M15.8386 120.861L16.0823 124.029H16.326L15.8386 120.861Z" fill="#CF7A10"/>
<path d="M20.712 120.861V122.81H20.9557L20.712 120.861Z" fill="#F2BE89"/>
<path d="M153.025 120.861L153.269 121.105L153.025 120.861Z" fill="#FECE8E"/>
<path d="M153.269 122.566L153.513 122.81L153.269 122.566ZM153.025 122.81L152.051 124.272V124.516C153.03 124.346 153.392 123.757 153.025 122.81ZM153.513 122.81V124.028H153.756L153.513 122.81ZM15.5949 123.054V123.785H15.8386L15.5949 123.054Z" fill="#F2BE89"/>
<path d="M20.2247 123.785V124.029H29.9715V128.658C30.3414 127.777 30.6731 124.707 29.8246 124.035C29.2278 123.563 28.0002 123.785 27.2911 123.785C24.9785 123.785 22.5115 123.533 20.2247 123.785Z" fill="#CF7A10"/>
<path d="M20.712 123.541L20.9557 123.785L20.712 123.541ZM148.152 123.541L148.396 123.785L148.152 123.541Z" fill="#F2BE89"/>
<path d="M15.8386 123.785L16.0823 124.028L15.8386 123.785ZM16.326 123.785V124.028H20.2247L16.326 123.785ZM29.9715 123.785L30.2152 124.028L29.9715 123.785Z" fill="#F49B26"/>
<path d="M138.892 123.785V126.709H139.136L138.892 123.785Z" fill="#F2BE89"/>
<path d="M148.883 123.785V124.028H149.858L148.883 123.785Z" fill="#F49B26"/>
<path d="M149.858 123.785L150.101 124.028L149.858 123.785Z" fill="#F2BE89"/>
<path d="M150.101 123.785V124.028H153.025L150.101 123.785Z" fill="#F49B26"/>
<path d="M15.5949 124.516H16.3259L16.0823 124.029L15.5949 124.516ZM19.4937 124.029L20.4684 124.76L20.7189 128.711L23.1487 128.903L29.9715 129.146L27.2911 128.658H20.712C20.712 126.922 21.1453 125.061 19.4937 124.029Z" fill="#F2BE89"/>
<path d="M19.7373 124.029V124.272L20.712 124.76L19.7373 124.029Z" fill="#FECE8E"/>
<path d="M20.4684 124.029L20.7121 124.272L20.4684 124.029Z" fill="#F2BE89"/>
<path d="M20.712 124.029V128.658H29.9715V124.029H20.712Z" fill="#6E2D14"/>
<path d="M30.2152 124.029L30.4589 124.272L30.2152 124.029Z" fill="#F2BE89"/>
<path d="M139.136 124.029V128.658H129.389L129.64 133.141L132.07 133.532L139.136 133.288V128.658H148.396V124.029H139.136Z" fill="#6E2D14"/>
<path d="M16.5696 124.76L17.5443 124.516L16.5696 124.76ZM148.883 124.516V124.76L151.076 124.516H148.883Z" fill="#F2BE89"/>
<path d="M148.396 124.516V128.658H148.639L148.396 124.516Z" fill="#F49B26"/>
<path d="M148.883 126.709V128.658H149.127L148.883 126.709ZM149.614 126.709V128.658H149.858L149.614 126.709Z" fill="#F2BE89"/>
<path d="M29.9715 128.658V133.532H30.2152L29.9715 128.658Z" fill="#F49B26"/>
<path d="M30.2152 128.658C30.2152 129.769 29.7505 132.238 30.4657 133.141C31.3412 134.247 35.9383 133.534 37.2817 133.532C37.8713 133.53 38.8058 133.669 39.2242 133.141C39.9394 132.238 39.4747 129.769 39.4747 128.658H30.2152Z" fill="#6E2D14"/>
<path d="M139.136 128.658V133.532H132.07L129.64 133.956L128.902 138.161V138.405L130.608 138.161V137.918H129.633L129.877 133.775L130.12 134.506H130.364V133.775H136.699L139.129 133.385L139.38 128.902L139.867 129.389H140.111C141.915 128.426 146.591 128.385 148.396 129.389L148.883 128.658H139.136ZM19.4937 129.146L19.7374 129.389L19.4937 129.146ZM39.5558 129.308L39.6372 129.47L39.5558 129.308ZM139.867 129.633V130.364H140.111L139.867 129.633ZM29.2405 129.877L29.4842 130.12L29.2405 129.877ZM39.4747 130.364V133.532H40.4494V133.288H39.7184L39.4747 130.364ZM29.4842 130.608V133.044H29.7279L29.4842 130.608ZM139.867 130.608V133.044H140.111L139.867 130.608Z" fill="#F2BE89"/>
<path d="M138.892 132.801L139.136 133.044L138.892 132.801Z" fill="#CF7A10"/>
<path d="M129.227 133.207L129.308 133.369L129.227 133.207Z" fill="#F2BE89"/>
<path d="M30.2152 133.288L30.4589 133.532L30.2152 133.288ZM39.231 133.288L39.7184 133.775L39.231 133.288Z" fill="#CF7A10"/>
<path d="M43.0486 133.369L43.2109 133.451L43.0486 133.369ZM43.6171 133.288V133.532H44.3481L43.6171 133.288Z" fill="#F2BE89"/>
<path d="M129.389 133.288L129.146 133.775H129.633L129.389 133.288ZM138.892 133.288L139.136 133.532L138.892 133.288Z" fill="#CF7A10"/>
<path d="M29.2405 133.532L29.4842 133.775L29.2405 133.532ZM29.9715 133.532V133.775H39.231C39.0931 135.011 38.6935 137.585 39.7183 138.405L39.4747 133.775L29.9715 133.532Z" fill="#F2BE89"/>
<path d="M39.231 133.532L39.4747 133.775L39.231 133.532Z" fill="#F49B26"/>
<path d="M39.4747 137.918H44.3481C44.3481 136.837 44.6853 135.08 44.2012 134.096C43.764 133.208 40.3114 133.182 39.7252 133.922C39.0673 134.753 39.4747 136.902 39.4747 137.918Z" fill="#6E2D14"/>
<path d="M44.1044 133.532L44.3481 133.775L44.1044 133.532Z" fill="#CF7A10"/>
<path d="M124.759 133.532L125.003 138.161C126.068 138.073 128.144 138.588 128.999 137.911C129.728 137.333 129.701 134.11 128.824 133.679C127.786 133.168 125.901 133.532 124.759 133.532Z" fill="#6E2D14"/>
<path d="M129.633 133.532L129.877 133.775L129.633 133.532Z" fill="#F49B26"/>
<path d="M44.3481 133.775L44.5918 134.019L44.3481 133.775ZM29.9715 134.019L30.2152 134.263L29.9715 134.019ZM30.4589 134.019V134.263H38.9873L30.4589 134.019ZM130.608 134.019V134.263H139.623C137.236 133.261 133.202 134.019 130.608 134.019ZM29.2405 134.263L29.4842 134.506L29.2405 134.263Z" fill="#F2BE89"/>
<path d="M39.231 134.263L39.4747 134.506L39.231 134.263Z" fill="#FECE8E"/>
<path d="M124.759 135.481L125.003 135.725L124.759 135.481ZM124.841 136.131L124.922 136.293L124.841 136.131Z" fill="#CF7A10"/>
<path d="M44.3481 136.699L44.5918 136.943L44.3481 136.699ZM129.877 136.699V136.943H130.608L129.877 136.699ZM44.3481 137.187V137.918H44.5918L44.3481 137.187ZM129.877 137.187L130.364 137.674V137.187H129.877Z" fill="#F2BE89"/>
<path d="M39.4747 137.918V138.161H40.2057L39.4747 137.918ZM40.4494 137.918L40.693 138.161L40.4494 137.918ZM43.6171 137.918V138.161L44.5918 138.405V138.161L43.6171 137.918Z" fill="#CF7A10"/>
<path d="M44.5106 137.999L44.6729 138.08L44.5106 137.999Z" fill="#F49B26"/>
<path d="M44.8354 137.918V138.161H53.6076C51.2781 137.184 47.3664 137.918 44.8354 137.918ZM115.013 142.547H115.256V138.161C117.504 138.161 124.221 137.061 125.491 139.136H125.734V138.405H125.978V140.354H126.222V138.161L118.18 137.918L115.263 138.308L115.013 142.547Z" fill="#F2BE89"/>
<path d="M124.759 137.918L125.003 138.161L124.759 137.918ZM125.491 137.918L125.734 138.161L125.491 137.918ZM126.222 137.918L126.465 138.161L126.222 137.918ZM129.146 137.918L129.389 138.161L129.146 137.918Z" fill="#CF7A10"/>
<path d="M40.2057 138.161L40.4494 138.405L40.2057 138.161ZM40.693 138.161L40.9367 138.405L40.693 138.161ZM42.8861 138.161L43.1297 140.354H43.3734V138.405H43.6171L43.8607 142.791H44.1044H44.3481C44.2394 141.104 45.1196 138.414 42.8861 138.161Z" fill="#F2BE89"/>
<path d="M43.1297 138.161L43.3734 138.405L43.1297 138.161Z" fill="#FECE8E"/>
<path d="M44.1044 138.161L44.3481 138.405L44.1044 138.161Z" fill="#F49B26"/>
<path d="M44.3481 142.791H53.6076V138.161H47.0285L44.5986 138.552L44.3481 142.791Z" fill="#6E2D14"/>
<path d="M53.6076 138.161V142.791H44.3481V143.035H53.6076V147.421H53.8513V143.035H63.3544V142.791H53.8513L53.6076 138.161Z" fill="#CF7A10"/>
<path d="M115.256 138.161V142.791H124.759V138.161H115.256Z" fill="#6E2D14"/>
<path d="M125.49 138.161L125.734 138.405L125.49 138.161ZM43.8607 138.405V139.38H44.1044L43.8607 138.405Z" fill="#FECE8E"/>
<path d="M124.759 138.405V142.547H125.003L124.759 138.405Z" fill="#F49B26"/>
<path d="M43.1297 142.304L42.8861 144.009H43.1297V142.791H43.3734V143.522H43.6171L43.1297 142.304Z" fill="#F2BE89"/>
<path d="M44.1044 142.304L44.3481 142.547L44.1044 142.304Z" fill="#FECE8E"/>
<path d="M125.003 142.304C122.954 144.238 118.426 141.568 116.718 143.522C118.749 143.039 120.977 143.283 123.054 143.278C123.861 143.277 125.169 143.413 125.003 142.304ZM125.815 142.466L125.897 142.629L125.815 142.466Z" fill="#F2BE89"/>
<path d="M106.971 142.791V143.035H124.759L119.155 142.791H106.971Z" fill="#CF7A10"/>
<path d="M105.753 142.791L105.509 143.278L105.753 142.791Z" fill="#F2BE89"/>
<path d="M105.753 143.766H105.997L106.728 143.035L105.753 143.766Z" fill="#CF7A10"/>
<path d="M106.728 142.791L106.972 143.035L106.728 142.791Z" fill="#F49B26"/>
<path d="M44.5106 143.116L44.6729 143.197L44.5106 143.116ZM52.6329 143.035V143.766H52.8766L52.6329 143.035ZM53.3639 143.035L52.6329 144.009L52.8766 146.69H53.1202V144.253H53.3639V146.202H53.6076L53.3639 143.035Z" fill="#F2BE89"/>
<path d="M53.8512 143.035V147.421H60.674L63.1039 147.03L63.3544 143.035H53.8512Z" fill="#6E2D14"/>
<path d="M63.3544 143.035L63.5981 147.421H63.8418L63.3544 143.035Z" fill="#F2BE89"/>
<path d="M105.997 143.035C105.837 144.057 105.304 146.146 106.004 147.03C106.422 147.559 107.357 147.42 107.946 147.421C109.505 147.424 113.624 148.154 114.866 147.17C115.344 146.791 115.253 146.01 115.256 145.472C115.277 142.225 112.716 143.035 110.139 143.035H105.997Z" fill="#6E2D14"/>
<path d="M115.256 143.035V143.522L115.744 143.035H115.256Z" fill="#F2BE89"/>
<path d="M115.256 143.766L116.231 143.035L115.256 143.766Z" fill="#FECE8E"/>
<path d="M116.231 143.035L115.256 143.766V144.009L116.475 144.253L116.231 143.035ZM44.4293 143.928L44.5106 144.09L44.4293 143.928ZM43.6171 144.009L43.8608 144.253L43.6171 144.009Z" fill="#F2BE89"/>
<path d="M105.753 144.01L105.997 144.253L105.753 144.01Z" fill="#CF7A10"/>
<path d="M116.718 144.01L116.962 144.253L116.718 144.01ZM115.987 144.253V146.203H116.231L115.987 144.253ZM115.419 146.284L115.581 146.365L115.419 146.284ZM116.231 146.203L115.987 146.69H116.475L116.231 146.203ZM116.718 146.203L116.962 146.446L116.718 146.203ZM53.3639 146.446L53.6076 146.69L53.3639 146.446ZM52.6329 146.934V147.421H53.1202V146.934H52.6329ZM53.4451 147.096L53.5264 147.258L53.4451 147.096ZM115.5 146.934L115.256 148.152L115.987 146.934H115.5ZM116.475 146.934V147.665H116.718L116.475 146.934Z" fill="#F2BE89"/>
<path d="M63.1107 147.177L63.3544 148.152L64.3291 147.665V147.421L63.1107 147.177Z" fill="#CF7A10"/>
<path d="M105.509 147.177L105.753 147.421L105.509 147.177Z" fill="#F2BE89"/>
<path d="M105.753 147.177L105.266 147.421V147.665L105.753 147.177ZM115.013 147.177L115.256 147.421L115.013 147.177Z" fill="#CF7A10"/>
<path d="M53.6076 147.421L53.8513 147.665L53.6076 147.421Z" fill="#F2BE89"/>
<path d="M53.8512 147.421V147.665H54.5823L53.8512 147.421Z" fill="#F49B26"/>
<path d="M54.5823 147.421V147.665H62.3798L54.5823 147.421Z" fill="#F2BE89"/>
<path d="M62.3797 147.421V147.665H63.1108L62.3797 147.421Z" fill="#F49B26"/>
<path d="M64.3557 147.56C63.025 147.99 62.7368 151.786 64.141 152.217C66.8731 153.054 70.9697 152.294 73.8323 152.294H95.2753H102.585C103.346 152.294 104.725 152.549 105.363 152.044C106.304 151.298 106.059 147.735 104.764 147.476C101.977 146.92 98.6063 147.421 95.7627 147.421H77C73.2814 147.421 67.8916 146.418 64.3557 147.56Z" fill="#6E2D14"/>
<path d="M105.834 147.583L105.916 147.746L105.834 147.583Z" fill="#F49B26"/>
<path d="M105.997 147.421V147.665H107.459L105.997 147.421ZM107.703 147.421L107.946 147.665L107.703 147.421ZM108.19 147.421L108.434 147.665L108.19 147.421ZM108.677 147.421L108.921 147.665L108.677 147.421ZM109.165 147.421V147.665H115.013L109.165 147.421Z" fill="#F2BE89"/>
<path d="M115.013 147.421L115.256 147.665L115.013 147.421Z" fill="#F49B26"/>
<path d="M115.987 147.421V148.152H116.231L115.987 147.421ZM53.0391 147.746L53.2014 147.827L53.0391 147.746ZM63.1919 147.827L63.2733 147.989L63.1919 147.827ZM54.3386 147.908L54.5823 148.152L54.3386 147.908ZM62.5423 147.989L62.7046 148.071L62.5423 147.989ZM105.753 147.908C105.753 149.252 105.189 151.783 106.728 152.294V152.051H105.997L105.753 147.908ZM106.241 147.908L106.484 148.152L106.241 147.908ZM106.728 147.908L106.972 148.152L106.728 147.908ZM109.165 147.908V148.152H109.896L109.165 147.908ZM116.637 147.989L116.8 148.071L116.637 147.989Z" fill="#F2BE89"/>
<path d="M63.4356 151.969L63.5169 152.132L63.4356 151.969Z" fill="#CF7A10"/>
<path d="M63.1107 152.051L63.3544 152.294L63.1107 152.051Z" fill="#F49B26"/>
<path d="M105.509 152.051L105.753 152.294L105.509 152.051Z" fill="#CF7A10"/>
<path d="M105.753 152.051L105.997 152.294L105.753 152.051Z" fill="#F49B26"/>
<path d="M62.3797 152.294V152.782H62.8671L62.3797 152.294ZM63.3544 152.294V152.538H105.753L101.611 152.294H93.0823H63.3544ZM106.403 152.619L106.565 152.7L106.403 152.619ZM106.972 152.538L106.241 153.269V153.513H107.215L106.972 152.538ZM63.1108 152.782V153.025H64.3291L63.1108 152.782ZM105.509 152.782V153.513H105.753L105.997 152.782H105.509ZM62.5423 153.35L62.7046 153.431L62.5423 153.35ZM63.3544 153.269V153.513L64.0854 154C66.9578 152.402 72.7633 153.513 76.0253 153.513H105.266V153.269H63.3544ZM62.7859 153.837L62.9482 153.919L62.7859 153.837ZM105.509 153.756L105.753 154L105.509 153.756ZM106.972 153.756L107.215 154L106.972 153.756Z" fill="#F2BE89"/>
</svg>
