<svg xmlns="http://www.w3.org/2000/svg" viewBox="0 0 483.44 483.44"><g data-name="Layer 2"><g data-name="Layer 1"><circle cx="241.72" cy="241.72" r="241.72" fill="#939ba2" opacity=".08"/><circle cx="241.72" cy="241.72" r="210.75" fill="#939ba2" opacity=".1"/><path d="M241.68 61.79c101.14.61 180 81.47 179.91 180.08a179.87 179.87 0 0 1-359.74-.18c.03-99.89 79.91-179.3 179.83-179.9ZM79.34 173.51a51.13 51.13 0 0 0-3.79 9.27A176.32 176.32 0 0 0 261.47 417a179.69 179.69 0 0 0 32.79-6.88 176.23 176.23 0 0 0 110.11-100.2 176.79 176.79 0 0 0 11.55-95.4 176.74 176.74 0 0 0-18-54.61 176.23 176.23 0 0 0-113.39-89.2 171 171 0 0 0-27.87-4.62c-3.24-.26-6.51-.82-9.79-.41a163 163 0 0 0-43.1 3.94 174 174 0 0 0-80.08 41.24 169.7 169.7 0 0 0-44.35 62.65Z" fill="#0a0a0a"/><path d="M389.49 238.33c-.26 3.5-.64 7-1.19 10.43a150.32 150.32 0 0 1-3.7 17 153.83 153.83 0 0 1-8.42 23.39 163.73 163.73 0 0 1-15.67 27.12 178.74 178.74 0 0 1-14.18 17.11 149 149 0 0 1-15.19 13.87 164.35 164.35 0 0 1-28.29 18.29c-4.19 2.15-8.52 4-12.9 5.74a158.41 158.41 0 0 1-27.23 8.11 144.23 144.23 0 0 1-17.22 2.47c-4.68.36-9.36.77-14.05.83-4.94.06-9.86-.47-14.78-.82a127.15 127.15 0 0 1-13.25-1.63 157.32 157.32 0 0 1-29.22-8 163.15 163.15 0 0 1-29.68-15 149.37 149.37 0 0 1-27.19-22.19c-2.26-2.37-4.6-4.65-6.72-7.15-3.25-3.83-6.46-7.69-9.37-11.79a160.45 160.45 0 0 1-16.68-29.56 144.21 144.21 0 0 1-7-19.83 147.38 147.38 0 0 1-4.47-22 157.12 157.12 0 0 1-.46-37.9c.5-4.1 1.05-8.2 1.8-12.26a149.4 149.4 0 0 1 5-19.65c.16-.48.66-1-.1-1.45a169.67 169.67 0 0 1 44.31-62.64 174.12 174.12 0 0 1 80.09-41.25 163 163 0 0 1 43.09-3.94c.16.7.68.82 1.28.81a49.2 49.2 0 0 1 9 1.09 154.17 154.17 0 0 1 21.81 5.23 165.86 165.86 0 0 1 28.37 12.07 158.89 158.89 0 0 1 49.22 41.55 165.47 165.47 0 0 1 17.1 27.07 161.58 161.58 0 0 1 7.47 17.62 154 154 0 0 1 5.45 19.06 166.88 166.88 0 0 1 3 19.55c.36 3.73.46 7.46.71 11.19.4 5.85-.3 11.66-.74 17.46Z" fill="#939ba2"/><path d="M79.34 173.51c.76.43.26 1 .1 1.44a148.38 148.38 0 0 0-5 19.66c-.76 4.06-1.3 8.15-1.81 12.26a158.5 158.5 0 0 0 .46 37.9 147.4 147.4 0 0 0 4.48 22 144.68 144.68 0 0 0 7 19.83 161.31 161.31 0 0 0 16.67 29.56c2.92 4.1 6.12 7.95 9.37 11.78 2.13 2.51 4.46 4.79 6.73 7.16a149.79 149.79 0 0 0 27.19 22.19 163.34 163.34 0 0 0 29.67 14.95 156.2 156.2 0 0 0 29.22 8 127.5 127.5 0 0 0 13.25 1.64c4.93.35 9.84.88 14.78.82 4.7-.06 9.38-.47 14.06-.83a146.3 146.3 0 0 0 17.22-2.47 157.56 157.56 0 0 0 27.27-8.12c4.38-1.73 8.71-3.58 12.9-5.74a164.68 164.68 0 0 0 28.29-18.28 147.82 147.82 0 0 0 15.18-13.87 178.49 178.49 0 0 0 14.18-17.11 163.12 163.12 0 0 0 15.67-27.13 153.44 153.44 0 0 0 8.42-23.39 147.74 147.74 0 0 0 3.71-17c.55-3.44.93-6.92 1.19-10.42.44-5.81 1.13-11.62.75-17.42-.24-3.72-.34-7.46-.7-11.19a167.56 167.56 0 0 0-3-19.55 150.91 150.91 0 0 0-5.45-19 158.77 158.77 0 0 0-7.46-17.62 165 165 0 0 0-17.1-27.07 159.11 159.11 0 0 0-49.23-41.55 166.6 166.6 0 0 0-28.44-12.14 154.13 154.13 0 0 0-21.81-5.22 49.3 49.3 0 0 0-9-1.09c-.6 0-1.12-.12-1.28-.81 3.28-.41 6.55.15 9.79.41a171 171 0 0 1 27.87 4.62 176.3 176.3 0 0 1 133.18 182.54 176.26 176.26 0 0 1-73.18 131.86 175.4 175.4 0 0 1-50.22 25 179.69 179.69 0 0 1-32.79 6.89A176.37 176.37 0 0 1 75.55 182.78a51.13 51.13 0 0 1 3.79-9.27Z" fill="#717171"/><path d="M153.11 154.76a20.86 20.86 0 0 1-9.46-1.63c-3.35-1.28-4.17-4.6-3.58-7.42 1.08-5.19 4.55-8.14 9.14-9.88a26.06 26.06 0 0 1 14.08-1.28c1.33.24 2.68.19 4 .45 4.94 1 7.06 3.81 6.07 8.66a10.75 10.75 0 0 1-4.82 6.86 23.79 23.79 0 0 1-15.43 4.24ZM154.28 221.79c.58 5.35-3.59 11.06-9 12.69-2.28.7-4.5 1.59-7 1.44a6.37 6.37 0 0 1-4-1.36c-1.16-1-2.42-1.82-3.66-2.68a8.47 8.47 0 0 1-1.48-12.88 16.71 16.71 0 0 1 6-4.24 68.7 68.7 0 0 1 6.94-2.56 2.72 2.72 0 0 1 2.3.07 8.21 8.21 0 0 0 2.75.71c4.14.73 7.79 3.74 7.15 8.81Z" fill="#717272"/><path d="M317.61 329.92a19 19 0 0 1-5.3-.43c-3.34-.66-5-2.57-5-5.91a31.07 31.07 0 0 1 1.07-7.06 6.27 6.27 0 0 1 3-3.63 36.61 36.61 0 0 1 10.4-4.77c2-.55 4-.23 6-.18.5 0 1 .32 1.06.81.05 1.25 1 2 1.53 2.9a6.08 6.08 0 0 1 1 3.62 23.2 23.2 0 0 0 0 3.12c.2 3.34-1.36 5.83-3.82 7.83-1.11.9-2.4 1.58-3.58 2.39a9.06 9.06 0 0 1-6.36 1.31Z" fill="#717172"/><path d="M241 98.21a11.53 11.53 0 0 1 7.3 1.64c1.1.62 2.35 1 3.48 1.55a4.52 4.52 0 0 1 2.67 5.31 11.43 11.43 0 0 1-10.89 9.29c-4.73.09-9.15-1.37-13.38-3.07-3.87-1.55-4.83-5.48-2.73-9.38 1.63-3 4.6-4 7.65-4.77a15.55 15.55 0 0 1 5.9-.57ZM243 319.11a22.91 22.91 0 0 1-14.17-5.57c-3.31-2.76-2.94-8.29 1.15-10.85a14.62 14.62 0 0 1 5.82-2c2.27-.29 4.41-1.13 6.79-1a8.85 8.85 0 0 1 8.16 11.22 13.52 13.52 0 0 1-3.08 5.58c-1.59 1.67-3.38 2.89-4.67 2.62ZM165.14 354.93a20.09 20.09 0 0 1-8.45-1.54 5.93 5.93 0 0 1-4.15-4.79 4.38 4.38 0 0 1 .6-3.18 9 9 0 0 1 6.31-3.91c3.93-.38 7.75.59 11.52 1.51 2.13.52 3.77 3.91 3.33 6.25a6.6 6.6 0 0 1-6.83 5.66Z" fill="#717272"/><path d="M81.79 216.56c-.53-4.25 2.25-7.1 5.7-9.54 1.1-.77 3.33-.09 4.2 1.22a3.59 3.59 0 0 1 .67 2 18.53 18.53 0 0 1-2.59 10c-.86 1.36-1.88 2.78-3.92 2.7a3.84 3.84 0 0 1-4-3.79c-.1-.69-.06-1.41-.06-2.59ZM187.69 114a13.41 13.41 0 0 0-1.46 0 5.24 5.24 0 0 1-5.61-5.86c.17-1.79.63-2.66 2.31-3.15a13.66 13.66 0 0 1 9.92.54 3.06 3.06 0 0 1 1.76 3.1c0 1.86-.27 3.51-2.1 4.45a8.55 8.55 0 0 1-4.82.92ZM367.3 172.63c0 3.15-3.6 5.5-5.9 4-2-1.34-4.33-2.74-4.91-5.57a4.4 4.4 0 0 1 1.12-4.4c.69-.67 1.33-1.39 2.06-2a3.49 3.49 0 0 1 4.37.06 6.83 6.83 0 0 1 2.38 4c.34 1.48.66 2.95.88 3.91Z" fill="#727272"/><path d="M360.74 259.91c1.06.08 2.41.19 2.81 1.92a2.71 2.71 0 0 0 .67.95c1.36 1.63 1.49 3 .44 4.73a3.77 3.77 0 0 1-4.29 1.66c-.24 0-.47-.09-.71-.12-3.57-.48-4.58-1.61-4.35-4.85.18-2.44 2.4-4.31 5.43-4.29Z" fill="#727273"/><path d="M263.92 291.05c-2.29 0-3.93-1.21-4.07-3.06a4.5 4.5 0 0 1 3.59-4.92 1.74 1.74 0 0 1 1.35.27 18 18 0 0 0 1.64 1c2 1.07 2.31 1.58 2 3.51a3.8 3.8 0 0 1-3.09 3.23 8.52 8.52 0 0 1-1.42-.03Z" fill="#727373"/><path d="M371.19 181.8a7.26 7.26 0 0 1 .3-2.81c.46-1.27 1.07-2.33 2.5-2.58a3.49 3.49 0 0 1 3.19 2.11c.94 2.15.48 4.36-.14 6.46-.36 1.24-1.83 1.71-3.19 1.47a3.38 3.38 0 0 1-2.64-2.74 12.16 12.16 0 0 1-.02-1.91Z" fill="#727272"/><path d="M223.34 371.85c0-2.14.95-3.25 2.94-3.47 1.11-.12 2.2-.16 3.31-.35 1.79-.3 3.28 1.79 2.7 3.53a5.61 5.61 0 0 1-8 2.69 2.4 2.4 0 0 1-.95-2.4Z" fill="#727373"/></g></g></svg>
